<?xml version="1.0" encoding="UTF-8"?>
<svg id="Capa_1" data-name="Capa 1" xmlns="http://www.w3.org/2000/svg" version="1.1" viewBox="0 0 100 51.3">
  <defs>
    <style>
      .cls-1 {
        fill: #a9a2ff;
      }

      .cls-1, .cls-2 {
        stroke-width: 0px;
      }

      .cls-2 {
        fill: #020054;
      }
    </style>
  </defs>
  <path class="cls-1" d="M17.7,48.1c-2.9,0-5.1-.7-6.6-2.2-1.5-1.4-2.3-3.4-2.3-6s0-1.9.3-2.9c.2-1.1.3-2.1.5-3.2s.3-2,.3-2.9-.2-1.7-.7-2.4c-.5-.6-1.2-.9-2.2-.9v-3.4c1,0,1.7-.3,2.2-.9.5-.6.7-1.4.7-2.4s0-1.8-.3-2.9c-.2-1-.3-2.1-.5-3.2s-.3-2-.3-2.9c0-2.6.8-4.6,2.3-6s3.7-2.1,6.6-2.1h1.2v2.7c0,.4-.1.6-.4.9-.3.2-.6.3-.9.3h-.2c-1.1,0-1.9.3-2.5,1-.6.7-.9,1.6-.9,2.8s0,2,.2,3.1c.1,1.1.3,2.2.4,3.3.1,1.1.2,2.1.2,2.9,0,1.2-.3,2.2-1,3.1-.7.9-1.6,1.6-2.7,2,1.1.3,2,.9,2.7,1.9s1,2,1,3.2,0,1.8-.2,2.9c-.1,1.1-.3,2.2-.4,3.3-.1,1.1-.2,2.2-.2,3.1s.3,2.2.9,2.9c.6.7,1.4,1.1,2.5,1.1h.2c.3,0,.6,0,.9.3.3.2.4.5.4.9v2.7h-1.2Z"/>
  <path class="cls-2" d="M25.2,20c1.3-2.1,2.9-3.7,4.8-4.8s3.9-1.6,6-1.6,3.2.4,4.3,1.1,1.9,1.7,2.4,2.9l2.1-12h10.6l-6.2,35.2h-10.6l.7-3.7c-.9,1.2-2,2.2-3.4,2.9s-2.9,1.1-4.7,1.1c-2.7,0-4.9-.9-6.5-2.7s-2.5-4.3-2.5-7.5.1-2.4.3-3.5c.5-2.8,1.4-5.3,2.8-7.4ZM41.1,26.2c0-1.1-.3-1.9-.9-2.5s-1.3-.9-2.3-.9-2.1.4-3,1.2c-.9.8-1.4,1.9-1.7,3.3,0,.3,0,.7,0,1.1,0,1.1.3,1.9.9,2.5s1.4.9,2.3.9,2.1-.4,3-1.2c.9-.8,1.4-1.9,1.7-3.3,0-.3,0-.7,0-1.1Z"/>
  <path class="cls-2" d="M65.6,32h11.2l-1.6,8.8h-22.8l1.5-8.3,11.9-9.8h-10.1l1.6-8.8h22.1l-1.5,8.3-12.4,9.8Z"/>
  <path class="cls-1" d="M82.2,3.9c2.9,0,5.1.7,6.6,2.2,1.5,1.4,2.2,3.4,2.2,6s0,1.8-.2,2.9-.3,2.1-.5,3.2-.3,2-.3,2.9.2,1.7.7,2.3c.4.6,1.2.9,2.2.9v3.5c-1,0-1.7.3-2.2.9-.4.6-.7,1.4-.7,2.3s0,1.8.3,2.9.3,2.1.5,3.2c.2,1.1.2,2,.2,2.9,0,2.5-.7,4.5-2.2,6-1.5,1.4-3.7,2.2-6.6,2.2h-1.2v-2.7c0-.4.2-.7.5-.9.3-.2.6-.3.8-.3h.2c1.1,0,1.9-.4,2.5-1.1.6-.7.9-1.6.9-2.8s0-1.9-.2-3.1c-.1-1.1-.3-2.2-.4-3.3s-.2-2.1-.2-2.9c0-1.2.3-2.3,1-3.2.7-.9,1.6-1.6,2.7-1.9-1.2-.3-2.1-.9-2.7-1.9s-1-2-1-3.2,0-1.8.2-2.9c.1-1.1.3-2.2.4-3.3.1-1.1.2-2.1.2-3.1s-.3-2.2-.9-2.9c-.6-.7-1.4-1-2.5-1h-.2c-.3,0-.5,0-.8-.3-.3-.2-.5-.5-.5-.9v-2.7h1.2Z"/>
</svg>