<svg width="50" height="49" viewBox="0 0 50 49" fill="none" xmlns="http://www.w3.org/2000/svg">
<path opacity="0.2" d="M45.0817 12.2222V36.6666C45.0817 37.0718 44.919 37.4604 44.6293 37.7469C44.3396 38.0334 43.9467 38.1943 43.537 38.1943H31.179C29.5402 38.1943 27.9686 38.8382 26.8098 39.9842C25.651 41.1303 25 42.6847 25 44.3054V16.8055C25 15.1848 25.651 13.6304 26.8098 12.4844C27.9686 11.3383 29.5402 10.6945 31.179 10.6945H43.537C43.9467 10.6945 44.3396 10.8554 44.6293 11.1419C44.919 11.4284 45.0817 11.817 45.0817 12.2222Z" fill="#9A62A4"/>
<path d="M43.5369 9.16663H31.179C29.9799 9.16663 28.7973 9.44273 27.7248 9.97308C26.6523 10.5034 25.7194 11.2735 25 12.2222C24.2805 11.2735 23.3476 10.5034 22.2752 9.97308C21.2027 9.44273 20.0201 9.16663 18.821 9.16663H6.46303C5.64364 9.16663 4.85782 9.48855 4.27843 10.0616C3.69903 10.6346 3.37354 11.4118 3.37354 12.2222V36.6665C3.37354 37.4769 3.69903 38.2541 4.27843 38.8271C4.85782 39.4001 5.64364 39.7221 6.46303 39.7221H18.821C20.0501 39.7221 21.2288 40.2049 22.0979 41.0645C22.967 41.924 23.4552 43.0898 23.4552 44.3054C23.4552 44.7106 23.618 45.0992 23.9077 45.3857C24.1974 45.6722 24.5903 45.8331 25 45.8331C25.4097 45.8331 25.8026 45.6722 26.0923 45.3857C26.382 45.0992 26.5447 44.7106 26.5447 44.3054C26.5447 43.0898 27.033 41.924 27.9021 41.0645C28.7712 40.2049 29.9499 39.7221 31.179 39.7221H43.5369C44.3563 39.7221 45.1422 39.4001 45.7215 38.8271C46.3009 38.2541 46.6264 37.4769 46.6264 36.6665V12.2222C46.6264 11.4118 46.3009 10.6346 45.7215 10.0616C45.1422 9.48855 44.3563 9.16663 43.5369 9.16663ZM18.821 36.6665H6.46303V12.2222H18.821C20.0501 12.2222 21.2288 12.7051 22.0979 13.5646C22.967 14.4241 23.4552 15.5899 23.4552 16.8055V38.1943C22.1195 37.2002 20.4926 36.6639 18.821 36.6665ZM43.5369 36.6665H31.179C29.5074 36.6639 27.8804 37.2002 26.5447 38.1943V16.8055C26.5447 15.5899 27.033 14.4241 27.9021 13.5646C28.7712 12.7051 29.9499 12.2222 31.179 12.2222H43.5369V36.6665ZM31.179 16.8055H38.9027C39.3124 16.8055 39.7053 16.9664 39.995 17.253C40.2847 17.5395 40.4475 17.9281 40.4475 18.3333C40.4475 18.7384 40.2847 19.127 39.995 19.4136C39.7053 19.7001 39.3124 19.861 38.9027 19.861H31.179C30.7693 19.861 30.3764 19.7001 30.0867 19.4136C29.797 19.127 29.6342 18.7384 29.6342 18.3333C29.6342 17.9281 29.797 17.5395 30.0867 17.253C30.3764 16.9664 30.7693 16.8055 31.179 16.8055ZM40.4475 24.4443C40.4475 24.8495 40.2847 25.2381 39.995 25.5246C39.7053 25.8112 39.3124 25.9721 38.9027 25.9721H31.179C30.7693 25.9721 30.3764 25.8112 30.0867 25.5246C29.797 25.2381 29.6342 24.8495 29.6342 24.4443C29.6342 24.0392 29.797 23.6506 30.0867 23.364C30.3764 23.0775 30.7693 22.9166 31.179 22.9166H38.9027C39.3124 22.9166 39.7053 23.0775 39.995 23.364C40.2847 23.6506 40.4475 24.0392 40.4475 24.4443ZM40.4475 30.5554C40.4475 30.9606 40.2847 31.3492 39.995 31.6357C39.7053 31.9222 39.3124 32.0832 38.9027 32.0832H31.179C30.7693 32.0832 30.3764 31.9222 30.0867 31.6357C29.797 31.3492 29.6342 30.9606 29.6342 30.5554C29.6342 30.1502 29.797 29.7616 30.0867 29.4751C30.3764 29.1886 30.7693 29.0277 31.179 29.0277H38.9027C39.3124 29.0277 39.7053 29.1886 39.995 29.4751C40.2847 29.7616 40.4475 30.1502 40.4475 30.5554Z" fill="#020054"/>
</svg>
