<svg width="70" height="70" viewBox="0 0 70 70" fill="none" xmlns="http://www.w3.org/2000/svg">
<path opacity="0.2" d="M61.2499 15.3125V56.875H8.74988V13.125H59.0624C59.6425 13.125 60.1989 13.3555 60.6092 13.7657C61.0194 14.1759 61.2499 14.7323 61.2499 15.3125Z" fill="#9A62A4"/>
<path d="M63.4375 56.8748C63.4375 57.4549 63.207 58.0113 62.7968 58.4216C62.3866 58.8318 61.8302 59.0623 61.25 59.0623H8.75C8.16984 59.0623 7.61344 58.8318 7.2032 58.4216C6.79297 58.0113 6.5625 57.4549 6.5625 56.8748V13.1248C6.5625 12.5446 6.79297 11.9882 7.2032 11.578C7.61344 11.1677 8.16984 10.9373 8.75 10.9373C9.33016 10.9373 9.88656 11.1677 10.2968 11.578C10.707 11.9882 10.9375 12.5446 10.9375 13.1248V38.9291L24.809 26.7966C25.1865 26.4662 25.666 26.2756 26.1673 26.2566C26.6686 26.2377 27.1612 26.3917 27.5625 26.6927L43.6434 38.7541L59.809 24.6091C60.0209 24.3993 60.2736 24.2351 60.5513 24.1265C60.8291 24.0179 61.1261 23.9672 61.4242 23.9776C61.7222 23.988 62.015 24.0592 62.2845 24.1869C62.5541 24.3146 62.7946 24.4961 62.9914 24.7202C63.1883 24.9443 63.3372 25.2062 63.429 25.49C63.5209 25.7737 63.5538 26.0732 63.5256 26.3701C63.4975 26.6671 63.4089 26.9551 63.2654 27.2165C63.1219 27.4779 62.9264 27.7073 62.691 27.8904L45.191 43.2029C44.8135 43.5333 44.334 43.724 43.8327 43.7429C43.3314 43.7618 42.8388 43.6078 42.4375 43.3068L26.3566 31.2509L10.9375 44.7423V54.6873H61.25C61.8302 54.6873 62.3866 54.9177 62.7968 55.328C63.207 55.7382 63.4375 56.2946 63.4375 56.8748Z" fill="#020054"/>
</svg>
