<svg width="50" height="49" viewBox="0 0 50 49" fill="none" xmlns="http://www.w3.org/2000/svg">
<path opacity="0.2" d="M46.3331 24.4443L32.5832 36.6665H17.3055L3.55554 24.4443L17.3055 12.2222H32.5832L46.3331 24.4443Z" fill="#9A62A4"/>
<path d="M18.3195 13.368L5.8472 24.4444L18.3119 35.5207C18.4624 35.6539 18.5851 35.8154 18.6732 35.996C18.7613 36.1766 18.8129 36.3728 18.8251 36.5734C18.8374 36.7739 18.81 36.975 18.7445 37.1649C18.6791 37.3549 18.5768 37.5301 18.4437 37.6806C18.3105 37.8311 18.149 37.9539 17.9684 38.0419C17.7878 38.13 17.5916 38.1816 17.391 38.1938C17.1905 38.2061 16.9895 38.1787 16.7995 38.1132C16.6095 38.0478 16.4343 37.9456 16.2838 37.8124L2.53385 25.5902C2.37128 25.4469 2.24108 25.2705 2.1519 25.073C2.06272 24.8754 2.0166 24.6611 2.0166 24.4444C2.0166 24.2276 2.06272 24.0134 2.1519 23.8158C2.24108 23.6183 2.37128 23.4419 2.53385 23.2986L16.2838 11.0764C16.4343 10.9427 16.6096 10.84 16.7998 10.7741C16.9899 10.7082 17.1912 10.6804 17.3921 10.6922C17.5931 10.7041 17.7897 10.7555 17.9708 10.8433C18.1518 10.9312 18.3138 11.0539 18.4475 11.2043C18.5812 11.3548 18.6839 11.5301 18.7498 11.7203C18.8157 11.9105 18.8435 12.1118 18.8316 12.3127C18.8198 12.5136 18.7684 12.7102 18.6806 12.8913C18.5927 13.0724 18.47 13.2344 18.3195 13.368ZM47.3472 23.2986L33.5973 11.0764C33.2934 10.8074 32.8951 10.6702 32.49 10.6949C32.085 10.7197 31.7063 10.9043 31.4374 11.2082C31.1684 11.5121 31.0312 11.9103 31.0559 12.3154C31.0806 12.7205 31.2653 13.0991 31.5691 13.368L44.0415 24.4444L31.5768 35.5207C31.4263 35.6539 31.3035 35.8154 31.2155 35.996C31.1274 36.1766 31.0758 36.3728 31.0636 36.5734C31.0513 36.7739 31.0787 36.975 31.1442 37.1649C31.2096 37.3549 31.3118 37.5301 31.445 37.6806C31.5782 37.8311 31.7397 37.9539 31.9203 38.0419C32.1009 38.13 32.2971 38.1816 32.4977 38.1938C32.6982 38.2061 32.8992 38.1787 33.0892 38.1132C33.2792 38.0478 33.4544 37.9456 33.6049 37.8124L47.3548 25.5902C47.5174 25.4469 47.6476 25.2705 47.7368 25.073C47.826 24.8754 47.8721 24.6611 47.8721 24.4444C47.8721 24.2276 47.826 24.0134 47.7368 23.8158C47.6476 23.6183 47.5174 23.4419 47.3548 23.2986H47.3472Z" fill="#020054"/>
</svg>
