<svg width="50" height="49" viewBox="0 0 50 49" fill="none" xmlns="http://www.w3.org/2000/svg">
<path opacity="0.2" d="M17.3612 12.2222C17.3612 13.1287 17.0924 14.0149 16.5888 14.7686C16.0852 15.5223 15.3693 16.1098 14.5319 16.4567C13.6944 16.8036 12.7728 16.8943 11.8837 16.7175C10.9947 16.5406 10.178 16.1041 9.537 15.4631C8.89602 14.8221 8.4595 14.0055 8.28265 13.1164C8.1058 12.2273 8.19657 11.3058 8.54347 10.4683C8.89037 9.63078 9.47782 8.91497 10.2315 8.41134C10.9853 7.90772 11.8714 7.63892 12.7779 7.63892C13.9935 7.63892 15.1593 8.1218 16.0188 8.98134C16.8783 9.84088 17.3612 11.0067 17.3612 12.2222ZM37.2222 7.63892C36.3158 7.63892 35.4296 7.90772 34.6759 8.41134C33.9222 8.91497 33.3347 9.63078 32.9878 10.4683C32.6409 11.3058 32.5501 12.2273 32.727 13.1164C32.9038 14.0055 33.3404 14.8221 33.9813 15.4631C34.6223 16.1041 35.439 16.5406 36.3281 16.7175C37.2172 16.8943 38.1387 16.8036 38.9762 16.4567C39.8137 16.1098 40.5295 15.5223 41.0331 14.7686C41.5368 14.0149 41.8056 13.1287 41.8056 12.2222C41.8056 11.0067 41.3227 9.84088 40.4631 8.98134C39.6036 8.1218 38.4378 7.63892 37.2222 7.63892Z" fill="#9A62A4"/>
<path d="M43.3333 12.2221C43.3327 11.0793 43.0117 9.95951 42.4066 8.98996C41.8016 8.0204 40.9368 7.23994 39.9105 6.73719C38.8842 6.23445 37.7374 6.02958 36.6005 6.14584C35.4636 6.26211 34.382 6.69485 33.4787 7.39493C32.5754 8.09501 31.8865 9.03436 31.4902 10.1063C31.094 11.1783 31.0062 12.3398 31.237 13.4592C31.4677 14.5785 32.0077 15.6106 32.7957 16.4385C33.5836 17.2663 34.5879 17.8565 35.6944 18.1423V19.861C35.6944 20.6714 35.3725 21.4486 34.7995 22.0216C34.2264 22.5946 33.4493 22.9165 32.6389 22.9165H17.3612C16.5508 22.9165 15.7736 22.5946 15.2006 22.0216C14.6275 21.4486 14.3056 20.6714 14.3056 19.861V18.1423C15.7458 17.7704 17.0009 16.8861 17.8357 15.655C18.6705 14.424 19.0276 12.9307 18.8402 11.4552C18.6528 9.97966 17.9337 8.62312 16.8176 7.63987C15.7016 6.65661 14.2652 6.11414 12.7778 6.11414C11.2905 6.11414 9.85411 6.65661 8.73807 7.63987C7.62202 8.62312 6.90289 9.97966 6.71547 11.4552C6.52805 12.9307 6.88521 14.424 7.72001 15.655C8.5548 16.8861 9.80991 17.7704 11.2501 18.1423V19.861C11.2501 21.4818 11.8939 23.0361 13.04 24.1822C14.186 25.3282 15.7404 25.9721 17.3612 25.9721H23.4722V30.7464C22.0321 31.1182 20.777 32.0026 19.9422 33.2336C19.1074 34.4646 18.7502 35.9579 18.9376 37.4334C19.1251 38.909 19.8442 40.2655 20.9602 41.2488C22.0763 42.232 23.5126 42.7745 25 42.7745C26.4874 42.7745 27.9238 42.232 29.0398 41.2488C30.1558 40.2655 30.875 38.909 31.0624 37.4334C31.2498 35.9579 30.8927 34.4646 30.0579 33.2336C29.2231 32.0026 27.968 31.1182 26.5278 30.7464V25.9721H32.6389C34.2596 25.9721 35.814 25.3282 36.9601 24.1822C38.1061 23.0361 38.75 21.4818 38.75 19.861V18.1423C40.0613 17.8016 41.2226 17.0357 42.052 15.9644C42.8814 14.8931 43.332 13.577 43.3333 12.2221ZM9.72231 12.2221C9.72231 11.6178 9.90151 11.0271 10.2373 10.5246C10.573 10.0221 11.0502 9.63046 11.6085 9.39919C12.1669 9.16792 12.7812 9.10741 13.374 9.22531C13.9667 9.34321 14.5111 9.63422 14.9384 10.0615C15.3658 10.4889 15.6568 11.0333 15.7747 11.626C15.8926 12.2188 15.8321 12.8331 15.6008 13.3914C15.3695 13.9498 14.9779 14.427 14.4754 14.7627C13.9729 15.0985 13.3822 15.2777 12.7778 15.2777C11.9675 15.2777 11.1903 14.9558 10.6173 14.3827C10.0442 13.8097 9.72231 13.0325 9.72231 12.2221ZM28.0556 36.6665C28.0556 37.2708 27.8764 37.8616 27.5406 38.3641C27.2049 38.8665 26.7277 39.2582 26.1693 39.4894C25.611 39.7207 24.9966 39.7812 24.4039 39.6633C23.8112 39.5454 23.2668 39.2544 22.8394 38.8271C22.4121 38.3998 22.1211 37.8553 22.0032 37.2626C21.8853 36.6699 21.9458 36.0555 22.1771 35.4972C22.4083 34.9389 22.8 34.4616 23.3025 34.1259C23.8049 33.7901 24.3957 33.6109 25 33.6109C25.8104 33.6109 26.5876 33.9329 27.1606 34.5059C27.7336 35.0789 28.0556 35.8561 28.0556 36.6665ZM37.2222 15.2777C36.6179 15.2777 36.0271 15.0985 35.5246 14.7627C35.0221 14.427 34.6305 13.9498 34.3992 13.3914C34.168 12.8331 34.1075 12.2188 34.2254 11.626C34.3433 11.0333 34.6343 10.4889 35.0616 10.0615C35.4889 9.63422 36.0334 9.34321 36.6261 9.22531C37.2188 9.10741 37.8332 9.16792 38.3915 9.39919C38.9498 9.63046 39.427 10.0221 39.7628 10.5246C40.0985 11.0271 40.2777 11.6178 40.2777 12.2221C40.2777 13.0325 39.9558 13.8097 39.3828 14.3827C38.8098 14.9558 38.0326 15.2777 37.2222 15.2777Z" fill="#020054"/>
</svg>
