<svg width="50" height="49" viewBox="0 0 50 49" fill="none" xmlns="http://www.w3.org/2000/svg">
<path opacity="0.2" d="M20.4167 19.8611V39.7221H8.19452C7.78933 39.7221 7.40073 39.5612 7.11422 39.2746C6.82771 38.9881 6.66675 38.5995 6.66675 38.1943V19.8611H20.4167Z" fill="#9A62A4"/>
<path d="M41.8056 7.63892H8.19458C7.3842 7.63892 6.60701 7.96084 6.03399 8.53386C5.46096 9.10689 5.13904 9.88408 5.13904 10.6945V38.1943C5.13904 39.0047 5.46096 39.7819 6.03399 40.3549C6.60701 40.928 7.3842 41.2499 8.19458 41.2499H41.8056C42.6159 41.2499 43.3931 40.928 43.9661 40.3549C44.5392 39.7819 44.8611 39.0047 44.8611 38.1943V10.6945C44.8611 9.88408 44.5392 9.10689 43.9661 8.53386C43.3931 7.96084 42.6159 7.63892 41.8056 7.63892ZM41.8056 10.6945V18.3333H8.19458V10.6945H41.8056ZM8.19458 21.3889H18.889V38.1943H8.19458V21.3889ZM41.8056 38.1943H21.9445V21.3889H41.8056V38.1943Z" fill="#020054"/>
</svg>
