<svg width="70" height="70" viewBox="0 0 70 70" fill="none" xmlns="http://www.w3.org/2000/svg">
<path opacity="0.2" d="M56.875 28.4375C56.8779 31.752 56.1263 35.0237 54.677 38.0046C53.2278 40.9855 51.119 43.5973 48.5105 45.6422C47.7139 46.2596 47.0682 47.0502 46.6224 47.9541C46.1766 48.858 45.9424 49.8515 45.9375 50.8594V52.5C45.9375 53.0802 45.707 53.6366 45.2968 54.0468C44.8865 54.4571 44.3301 54.6875 43.75 54.6875H26.25C25.6698 54.6875 25.1134 54.4571 24.7032 54.0468C24.2929 53.6366 24.0625 53.0802 24.0625 52.5V50.8594C24.0614 49.8571 23.8318 48.8682 23.3912 47.968C22.9505 47.0677 22.3104 46.2798 21.5195 45.6641C18.919 43.6326 16.8127 41.0383 15.3588 38.076C13.9049 35.1137 13.1411 31.8604 13.125 28.5606C13.0593 16.7043 22.6187 6.83596 34.4722 6.56252C37.389 6.49213 40.2904 7.00594 43.0056 8.07371C45.7208 9.14147 48.195 10.7416 50.2825 12.7799C52.37 14.8183 54.0287 17.2536 55.1608 19.9426C56.293 22.6316 56.8758 25.5199 56.875 28.4375Z" fill="#A9A2FF"/>
<path d="M48.125 63.4374C48.125 64.0176 47.8945 64.574 47.4843 64.9842C47.0741 65.3944 46.5177 65.6249 45.9375 65.6249H24.0625C23.4823 65.6249 22.9259 65.3944 22.5157 64.9842C22.1055 64.574 21.875 64.0176 21.875 63.4374C21.875 62.8572 22.1055 62.3008 22.5157 61.8906C22.9259 61.4804 23.4823 61.2499 24.0625 61.2499H45.9375C46.5177 61.2499 47.0741 61.4804 47.4843 61.8906C47.8945 62.3008 48.125 62.8572 48.125 63.4374ZM59.0625 28.4374C59.0719 32.0841 58.2481 35.6847 56.6539 38.9645C55.0598 42.2443 52.7374 45.1165 49.8641 47.362C49.3268 47.7738 48.8908 48.303 48.5894 48.9092C48.288 49.5153 48.1291 50.1823 48.125 50.8593V52.4999C48.125 53.6602 47.6641 54.773 46.8436 55.5935C46.0231 56.414 44.9103 56.8749 43.75 56.8749H26.25C25.0897 56.8749 23.9769 56.414 23.1564 55.5935C22.3359 54.773 21.875 53.6602 21.875 52.4999V50.8593C21.8745 50.1904 21.7208 49.5306 21.4254 48.9305C21.1301 48.3304 20.7011 47.806 20.1715 47.3976C17.3057 45.1656 14.9851 42.3111 13.3853 39.05C11.7855 35.7888 10.9485 32.2065 10.9375 28.5741C10.8664 15.5394 21.3992 4.68936 34.4203 4.3749C37.6287 4.29759 40.8201 4.86286 43.8067 6.03745C46.7934 7.21204 49.5149 8.97222 51.811 11.2144C54.1072 13.4565 55.9317 16.1354 57.177 19.0932C58.4223 22.051 59.0634 25.2281 59.0625 28.4374ZM54.6875 28.4374C54.6883 25.8115 54.1637 23.2119 53.1447 20.7918C52.1257 18.3716 50.6328 16.1798 48.754 14.3453C46.8751 12.5108 44.6483 11.0707 42.2045 10.1097C39.7607 9.14879 37.1494 8.68644 34.5242 8.7499C23.8601 9.00147 15.2551 17.88 15.3125 28.544C15.3223 31.5152 16.0078 34.4452 17.3172 37.1123C18.6266 39.7794 20.5255 42.1137 22.8703 43.9386C23.9242 44.7579 24.7768 45.8075 25.3626 47.0071C25.9483 48.2066 26.2519 49.5243 26.25 50.8593V52.4999H32.8125V40.28L24.7023 32.1726C24.2919 31.7621 24.0613 31.2054 24.0613 30.6249C24.0613 30.0444 24.2919 29.4877 24.7023 29.0772C25.1128 28.6668 25.6695 28.4362 26.25 28.4362C26.8305 28.4362 27.3872 28.6668 27.7976 29.0772L35 36.2823L42.2023 29.0772C42.4056 28.874 42.6469 28.7128 42.9124 28.6028C43.178 28.4928 43.4626 28.4362 43.75 28.4362C44.0374 28.4362 44.322 28.4928 44.5876 28.6028C44.8531 28.7128 45.0944 28.874 45.2976 29.0772C45.5009 29.2805 45.6621 29.5218 45.7721 29.7873C45.8821 30.0529 45.9387 30.3375 45.9387 30.6249C45.9387 30.9123 45.8821 31.1969 45.7721 31.4625C45.6621 31.728 45.5009 31.9693 45.2976 32.1726L37.1875 40.28V52.4999H43.75V50.8593C43.7524 49.5204 44.0609 48.1998 44.6519 46.9984C45.2428 45.7971 46.1007 44.7467 47.1598 43.9276C49.5116 42.0897 51.4124 39.7387 52.717 37.054C54.0216 34.3694 54.6956 31.4222 54.6875 28.4374Z" fill="#020054"/>
</svg>
