<svg width="72" height="70" viewBox="0 0 72 70" fill="none" xmlns="http://www.w3.org/2000/svg">
<path opacity="0.2" d="M53.6945 30.625C53.6945 34.9515 52.3973 39.1808 49.9669 42.7781C47.5366 46.3754 44.0822 49.1792 40.0406 50.8349C35.9991 52.4905 31.5519 52.9237 27.2614 52.0797C22.9709 51.2356 19.0299 49.1522 15.9366 46.093C12.8433 43.0337 10.7368 39.1359 9.88338 34.8926C9.02995 30.6493 9.46796 26.2509 11.142 22.2538C12.8161 18.2567 15.651 14.8403 19.2883 12.4366C22.9256 10.0329 27.2019 8.75 31.5764 8.75C34.481 8.75 37.3572 9.31581 40.0406 10.4151C42.7241 11.5145 45.1624 13.1258 47.2163 15.157C49.2701 17.1883 50.8993 19.5998 52.0109 22.2538C53.1224 24.9078 53.6945 27.7523 53.6945 30.625Z" fill="#9A62A4"/>
<path d="M64.1064 59.7022L50.2661 46.014C54.2854 41.2464 56.2916 35.1297 55.8671 28.9365C55.4427 22.7433 52.6203 16.9504 47.9872 12.7628C43.3541 8.57526 37.2669 6.31554 30.9921 6.45374C24.7172 6.59194 18.7378 9.11741 14.2978 13.5048C9.85774 17.8922 7.29891 23.8036 7.15364 30.0094C7.00836 36.2151 9.28781 42.2374 13.5178 46.8233C17.7478 51.4092 23.6026 54.2057 29.8642 54.6309C36.1259 55.0562 42.3123 53.0775 47.1364 49.1065L60.9767 62.7976C61.1822 63.0008 61.4262 63.162 61.6947 63.272C61.9632 63.382 62.251 63.4386 62.5416 63.4386C62.8322 63.4386 63.12 63.382 63.3885 63.272C63.657 63.162 63.9009 63.0008 64.1064 62.7976C64.3119 62.5943 64.4749 62.353 64.5862 62.0875C64.6974 61.8219 64.7546 61.5373 64.7546 61.2499C64.7546 60.9625 64.6974 60.6779 64.5862 60.4123C64.4749 60.1468 64.3119 59.9055 64.1064 59.7022ZM11.6701 30.6249C11.6701 26.7311 12.8375 22.9247 15.0249 19.6871C17.2122 16.4495 20.3211 13.9261 23.9585 12.436C27.5959 10.9459 31.5984 10.556 35.4598 11.3157C39.3213 12.0753 42.8682 13.9504 45.6522 16.7037C48.4361 19.4571 50.332 22.9651 51.1001 26.7841C51.8682 30.6031 51.4739 34.5616 49.9673 38.159C48.4606 41.7564 45.9092 44.8312 42.6356 46.9944C39.3621 49.1577 35.5134 50.3124 31.5763 50.3124C26.2986 50.3066 21.2388 48.2305 17.5069 44.5397C13.7751 40.8488 11.6759 35.8446 11.6701 30.6249Z" fill="#020054"/>
</svg>
