<svg width="70" height="70" viewBox="0 0 70 70" fill="none" xmlns="http://www.w3.org/2000/svg">
<path opacity="0.2" d="M58.8355 34.8441L50.3125 19.6875H19.6875L11.1644 34.8441C10.9866 35.2039 10.9111 35.6057 10.9463 36.0055C10.9815 36.4054 11.126 36.7878 11.3641 37.1109L35 67.8125L58.6332 37.1109C58.8717 36.788 59.0167 36.4057 59.0524 36.0059C59.0881 35.6061 59.013 35.2042 58.8355 34.8441ZM35 41.5625C33.9184 41.5625 32.8611 41.2418 31.9617 40.6409C31.0624 40.0399 30.3614 39.1858 29.9475 38.1866C29.5336 37.1873 29.4253 36.0877 29.6363 35.0268C29.8473 33.966 30.3682 32.9916 31.133 32.2268C31.8978 31.4619 32.8723 30.9411 33.9331 30.7301C34.9939 30.5191 36.0935 30.6274 37.0928 31.0413C38.0921 31.4552 38.9462 32.1561 39.5471 33.0555C40.148 33.9548 40.4687 35.0121 40.4687 36.0938C40.4687 37.5442 39.8926 38.9352 38.867 39.9607C37.8414 40.9863 36.4504 41.5625 35 41.5625Z" fill="#9A62A4"/>
<path d="M60.7933 33.8762C60.7769 33.8406 60.7605 33.8051 60.7414 33.7723L52.5 19.1133V8.75C52.5 7.58968 52.039 6.47688 51.2186 5.65641C50.3981 4.83594 49.2853 4.375 48.125 4.375H21.875C20.7146 4.375 19.6018 4.83594 18.7814 5.65641C17.9609 6.47688 17.5 7.58968 17.5 8.75V19.1187L9.25856 33.7723C9.23942 33.8051 9.22301 33.8406 9.20387 33.8762C8.84682 34.5949 8.69516 35.3983 8.7656 36.1978C8.83604 36.9973 9.12586 37.7618 9.60309 38.407L9.63317 38.4453L33.2691 69.1469C33.4735 69.4119 33.7359 69.6264 34.0362 69.7741C34.3365 69.9217 34.6667 69.9985 35.0013 69.9985C35.336 69.9985 35.6662 69.9217 35.9665 69.7741C36.2668 69.6264 36.5292 69.4119 36.7336 69.1469L60.3668 38.4453L60.3968 38.407C60.8742 37.7618 61.1639 36.9971 61.2339 36.1975C61.3038 35.3979 61.1514 34.5945 60.7933 33.8762ZM48.125 8.75V17.5H21.875V8.75H48.125ZM35 39.375C34.351 39.375 33.7166 39.1826 33.177 38.822C32.6374 38.4615 32.2168 37.949 31.9685 37.3494C31.7201 36.7499 31.6552 36.0901 31.7818 35.4536C31.9084 34.8171 32.2209 34.2324 32.6798 33.7736C33.1387 33.3147 33.7233 33.0022 34.3598 32.8755C34.9963 32.7489 35.6561 32.8139 36.2556 33.0623C36.8552 33.3106 37.3677 33.7312 37.7282 34.2708C38.0888 34.8104 38.2812 35.4448 38.2812 36.0938C38.2812 36.964 37.9355 37.7986 37.3202 38.4139C36.7048 39.0293 35.8702 39.375 35 39.375ZM37.1875 61.3867V43.4301C38.9499 42.9046 40.4642 41.7624 41.4537 40.2122C42.4431 38.662 42.8415 36.8074 42.576 34.9876C42.3105 33.1679 41.3988 31.5044 40.0077 30.3016C38.6166 29.0987 36.839 28.4367 35 28.4367C33.1609 28.4367 31.3833 29.0987 29.9922 30.3016C28.6011 31.5044 27.6894 33.1679 27.4239 34.9876C27.1584 36.8074 27.5568 38.662 28.5463 40.2122C29.5357 41.7624 31.0501 42.9046 32.8125 43.4301V61.384L13.125 35.8203L20.9699 21.875H49.0328L56.875 35.8203L37.1875 61.3867Z" fill="#020054"/>
</svg>
