<svg width="49" height="49" viewBox="0 0 49 49" fill="none" xmlns="http://www.w3.org/2000/svg">
<path opacity="0.2" d="M41.147 24.3355L35.1945 13.75H13.8057L7.85307 24.3355C7.72883 24.5868 7.67613 24.8674 7.70071 25.1467C7.7253 25.4259 7.82624 25.693 7.99248 25.9187L24.5001 47.361L41.0057 25.9187C41.1723 25.6932 41.2735 25.4262 41.2985 25.1469C41.3234 24.8677 41.271 24.587 41.147 24.3355ZM24.5001 29.0277C23.7446 29.0277 23.0062 28.8037 22.3781 28.384C21.75 27.9643 21.2604 27.3678 20.9714 26.6699C20.6823 25.972 20.6066 25.204 20.754 24.4632C20.9014 23.7223 21.2652 23.0417 21.7993 22.5075C22.3335 21.9734 23.014 21.6096 23.7549 21.4622C24.4958 21.3149 25.2638 21.3905 25.9617 21.6796C26.6596 21.9687 27.2561 22.4582 27.6758 23.0863C28.0955 23.7144 28.3195 24.4529 28.3195 25.2083C28.3195 26.2213 27.9171 27.1927 27.2008 27.909C26.4845 28.6253 25.513 29.0277 24.5001 29.0277Z" fill="#9A62A4"/>
<path d="M42.5143 23.6595C42.5029 23.6346 42.4914 23.6098 42.478 23.5869L36.7222 13.3489V6.11108C36.7222 5.3007 36.4002 4.52352 35.8272 3.95049C35.2542 3.37746 34.477 3.05554 33.6666 3.05554H15.3334C14.523 3.05554 13.7458 3.37746 13.1728 3.95049C12.5997 4.52352 12.2778 5.3007 12.2778 6.11108V13.3527L6.52193 23.5869C6.50856 23.6098 6.4971 23.6346 6.48374 23.6595C6.23437 24.1614 6.12845 24.7225 6.17764 25.2809C6.22684 25.8393 6.42925 26.3732 6.76255 26.8238L6.78356 26.8506L23.2911 48.2929C23.4339 48.4779 23.6171 48.6278 23.8269 48.7309C24.0366 48.834 24.2672 48.8876 24.5009 48.8876C24.7347 48.8876 24.9653 48.834 25.175 48.7309C25.3847 48.6278 25.568 48.4779 25.7107 48.2929L42.2164 26.8506L42.2374 26.8238C42.5708 26.3732 42.7731 25.8391 42.822 25.2807C42.8709 24.7222 42.7644 24.1612 42.5143 23.6595ZM33.6666 6.11108V12.2222H15.3334V6.11108H33.6666ZM24.5 27.4999C24.0467 27.4999 23.6037 27.3655 23.2268 27.1137C22.8499 26.8619 22.5562 26.504 22.3828 26.0852C22.2093 25.6665 22.1639 25.2057 22.2524 24.7611C22.3408 24.3166 22.559 23.9083 22.8795 23.5878C23.2 23.2673 23.6084 23.049 24.0529 22.9606C24.4974 22.8722 24.9582 22.9176 25.377 23.091C25.7957 23.2645 26.1536 23.5582 26.4054 23.9351C26.6572 24.3119 26.7916 24.755 26.7916 25.2082C26.7916 25.816 26.5502 26.3989 26.1204 26.8287C25.6907 27.2584 25.1078 27.4999 24.5 27.4999ZM26.0278 42.8731V30.332C27.2586 29.965 28.3163 29.1673 29.0073 28.0846C29.6984 27.0019 29.9766 25.7067 29.7912 24.4357C29.6057 23.1648 28.969 22.003 27.9975 21.1629C27.0259 20.3228 25.7844 19.8605 24.5 19.8605C23.2156 19.8605 21.9741 20.3228 21.0025 21.1629C20.0309 22.003 19.3942 23.1648 19.2088 24.4357C19.0234 25.7067 19.3016 27.0019 19.9927 28.0846C20.6837 29.1673 21.7413 29.965 22.9722 30.332V42.8712L9.22227 25.0173L14.7012 15.2777H34.3006L39.7777 25.0173L26.0278 42.8731Z" fill="#020054"/>
</svg>
