<svg width="70" height="70" viewBox="0 0 70 70" fill="none" xmlns="http://www.w3.org/2000/svg">
<path opacity="0.2" d="M63.4375 35C63.4375 38.4207 58.5648 41.0019 57.2359 44.2121C55.9562 47.3074 57.6242 52.593 55.1086 55.1086C52.593 57.6242 47.3074 55.9562 44.2121 57.2359C41.0156 58.5648 38.418 63.4375 35 63.4375C31.582 63.4375 28.9844 58.5648 25.7879 57.2359C22.6926 55.9562 17.407 57.6242 14.8914 55.1086C12.3758 52.593 14.0437 47.3074 12.7641 44.2121C11.4352 41.0156 6.5625 38.418 6.5625 35C6.5625 31.582 11.4352 28.9844 12.7641 25.7879C14.0437 22.6953 12.3758 17.407 14.8914 14.8914C17.407 12.3758 22.6953 14.0437 25.7879 12.7641C28.998 11.4352 31.582 6.5625 35 6.5625C38.418 6.5625 41.0156 11.4352 44.2121 12.7641C47.3074 14.0437 52.593 12.3758 55.1086 14.8914C57.6242 17.407 55.9562 22.6926 57.2359 25.7879C58.5648 28.998 63.4375 31.582 63.4375 35Z" fill="#9A62A4"/>
<path d="M61.7586 28.1148C60.7277 27.0375 59.6613 25.9273 59.2594 24.9512C58.8875 24.057 58.8656 22.575 58.8437 21.1395C58.8027 18.4707 58.759 15.4465 56.6562 13.3437C54.5535 11.241 51.5293 11.1973 48.8605 11.1562C47.425 11.1344 45.943 11.1125 45.0488 10.7406C44.0754 10.3387 42.9625 9.27226 41.8852 8.24141C39.9984 6.42852 37.8547 4.375 35 4.375C32.1453 4.375 30.0043 6.42852 28.1148 8.24141C27.0375 9.27226 25.9273 10.3387 24.9512 10.7406C24.0625 11.1125 22.575 11.1344 21.1395 11.1562C18.4707 11.1973 15.4465 11.241 13.3437 13.3437C11.241 15.4465 11.2109 18.4707 11.1562 21.1395C11.1344 22.575 11.1125 24.057 10.7406 24.9512C10.3387 25.9246 9.27226 27.0375 8.24141 28.1148C6.42852 30.0016 4.375 32.1453 4.375 35C4.375 37.8547 6.42852 39.9957 8.24141 41.8852C9.27226 42.9625 10.3387 44.0727 10.7406 45.0488C11.1125 45.943 11.1344 47.425 11.1562 48.8605C11.1973 51.5293 11.241 54.5535 13.3437 56.6562C15.4465 58.759 18.4707 58.8027 21.1395 58.8437C22.575 58.8656 24.057 58.8875 24.9512 59.2594C25.9246 59.6613 27.0375 60.7277 28.1148 61.7586C30.0016 63.5715 32.1453 65.625 35 65.625C37.8547 65.625 39.9957 63.5715 41.8852 61.7586C42.9625 60.7277 44.0727 59.6613 45.0488 59.2594C45.943 58.8875 47.425 58.8656 48.8605 58.8437C51.5293 58.8027 54.5535 58.759 56.6562 56.6562C58.759 54.5535 58.8027 51.5293 58.8437 48.8605C58.8656 47.425 58.8875 45.943 59.2594 45.0488C59.6613 44.0754 60.7277 42.9625 61.7586 41.8852C63.5715 39.9984 65.625 37.8547 65.625 35C65.625 32.1453 63.5715 30.0043 61.7586 28.1148ZM58.6004 38.8582C57.2906 40.2254 55.9344 41.6391 55.2152 43.3754C54.5262 45.0434 54.4961 46.9492 54.4687 48.7949C54.4414 50.709 54.4113 52.7133 53.5609 53.5609C52.7105 54.4086 50.7199 54.4414 48.7949 54.4687C46.9492 54.4961 45.0434 54.5262 43.3754 55.2152C41.6391 55.9344 40.2254 57.2906 38.8582 58.6004C37.491 59.9101 36.0937 61.25 35 61.25C33.9062 61.25 32.498 59.9047 31.1418 58.6004C29.7855 57.2961 28.3609 55.9344 26.6246 55.2152C24.9566 54.5262 23.0508 54.4961 21.2051 54.4687C19.291 54.4414 17.2867 54.4113 16.4391 53.5609C15.5914 52.7105 15.5586 50.7199 15.5312 48.7949C15.5039 46.9492 15.4738 45.0434 14.7848 43.3754C14.0656 41.6391 12.7094 40.2254 11.3996 38.8582C10.0898 37.491 8.75 36.0937 8.75 35C8.75 33.9062 10.0953 32.498 11.3996 31.1418C12.7039 29.7855 14.0656 28.3609 14.7848 26.6246C15.4738 24.9566 15.5039 23.0508 15.5312 21.2051C15.5586 19.291 15.5887 17.2867 16.4391 16.4391C17.2895 15.5914 19.2801 15.5586 21.2051 15.5312C23.0508 15.5039 24.9566 15.4738 26.6246 14.7848C28.3609 14.0656 29.7746 12.7094 31.1418 11.3996C32.509 10.0898 33.9062 8.75 35 8.75C36.0937 8.75 37.5019 10.0953 38.8582 11.3996C40.2145 12.7039 41.6391 14.0656 43.3754 14.7848C45.0434 15.4738 46.9492 15.5039 48.7949 15.5312C50.709 15.5586 52.7133 15.5887 53.5609 16.4391C54.4086 17.2895 54.4414 19.2801 54.4687 21.2051C54.4961 23.0508 54.5262 24.9566 55.2152 26.6246C55.9344 28.3609 57.2906 29.7746 58.6004 31.1418C59.9101 32.509 61.25 33.9062 61.25 35C61.25 36.0937 59.9047 37.5019 58.6004 38.8582ZM47.4852 26.8898C47.6885 27.093 47.8499 27.3343 47.96 27.5998C48.0701 27.8654 48.1267 28.15 48.1267 28.4375C48.1267 28.725 48.0701 29.0096 47.96 29.2752C47.8499 29.5407 47.6885 29.782 47.4852 29.9852L32.1727 45.2977C31.9695 45.501 31.7282 45.6624 31.4627 45.7725C31.1971 45.8826 30.9125 45.9392 30.625 45.9392C30.3375 45.9392 30.0529 45.8826 29.7873 45.7725C29.5218 45.6624 29.2805 45.501 29.0773 45.2977L22.5148 38.7352C22.1044 38.3247 21.8738 37.768 21.8738 37.1875C21.8738 36.607 22.1044 36.0503 22.5148 35.6398C22.9253 35.2294 23.482 34.9988 24.0625 34.9988C24.643 34.9988 25.1997 35.2294 25.6102 35.6398L30.625 40.6574L44.3898 26.8898C44.593 26.6865 44.8343 26.5251 45.0998 26.415C45.3654 26.3049 45.65 26.2483 45.9375 26.2483C46.225 26.2483 46.5096 26.3049 46.7752 26.415C47.0407 26.5251 47.282 26.6865 47.4852 26.8898Z" fill="#020054"/>
</svg>
