<svg width="500" height="419" viewBox="0 0 500 419" fill="none" xmlns="http://www.w3.org/2000/svg">
<path d="M127.442 212.747C127.873 213.274 128.598 213.296 129.052 212.806L136.135 205.138C136.593 204.642 136.612 203.808 136.186 203.285C135.756 202.758 135.031 202.736 134.577 203.226L127.494 210.894C127.035 211.39 127.016 212.224 127.442 212.747Z" fill="#FDAD9B"/>
<path d="M125.444 210.302C125.875 210.83 126.6 210.851 127.054 210.361L134.979 201.783C135.437 201.288 135.456 200.453 135.03 199.931C134.6 199.403 133.875 199.381 133.421 199.871L125.501 208.45C125.042 208.945 125.023 209.78 125.449 210.302H125.444Z" fill="#FDAD9B"/>
<path d="M119.624 212.324L120.681 203.914C120.79 203.05 121.489 202.449 122.239 202.573L122.642 202.641C123.397 202.766 123.915 203.571 123.807 204.434L122.75 212.839C122.642 213.702 121.942 214.304 121.192 214.179L120.789 214.112C120.039 213.987 119.517 213.182 119.625 212.318L119.624 212.324Z" fill="#FDAD9B"/>
<path d="M123.447 207.857C123.877 208.385 124.602 208.406 125.056 207.916L131.409 201.04C131.868 200.544 131.887 199.71 131.461 199.187C131.031 198.66 130.305 198.638 129.852 199.128L123.503 206.005C123.044 206.5 123.026 207.335 123.452 207.857H123.447Z" fill="#FDAD9B"/>
<path d="M124.766 218.773C124.766 218.773 131.115 217.109 133.089 212.295C133.772 210.625 127.718 203.614 126.006 204.228C124.294 204.842 120.396 209.963 120.396 209.963L124.766 218.773Z" fill="#FDAD9B"/>
<path d="M129.421 215.181C129.852 215.703 130.572 215.73 131.03 215.24L137.37 208.38C137.824 207.884 137.847 207.055 137.421 206.527C136.991 206.005 136.27 205.978 135.816 206.468L129.477 213.328C129.023 213.824 129 214.653 129.426 215.181H129.421Z" fill="#FDAD9B"/>
<path d="M120.149 207.787C108.888 214.567 92.2559 223.296 76.9388 226.392C73.3925 227.108 72.0265 227.324 69.9118 227.399C68.2089 227.458 66.3656 230.98 66.4264 234.33C66.4825 237.474 68.4007 240.183 70.4545 240.554C71.989 240.829 73.5984 240.7 77.5657 239.973C91.3436 237.453 107.03 230.431 125.646 218.492L120.149 207.787Z" fill="#FDAD9B"/>
<path d="M56.4708 394.962C56.4708 394.962 56.5644 399.183 59.0439 400.379C61.5281 401.569 68.7235 402.646 66.0335 405.36C64.4896 406.916 57.2193 405.909 55.1702 405.909C53.121 405.909 51.1889 406.938 49.6637 405.36C47.9842 403.621 49.6637 394.962 49.6637 394.962C49.6637 394.962 51.4368 396.023 53.0275 395.974C55.3246 395.904 56.4708 394.962 56.4708 394.962Z" fill="#4F4FC1"/>
<path d="M27.9511 394.956C27.9511 394.956 28.0447 399.178 30.5243 400.374C33.0085 401.564 40.2039 402.641 37.5138 405.355C35.9699 406.911 28.6997 405.904 26.6505 405.904C24.5967 405.904 22.6692 406.932 21.144 405.355C19.4645 403.615 21.144 394.956 21.144 394.956C21.144 394.956 22.9172 396.017 24.5078 395.969C26.8049 395.899 27.9511 394.956 27.9511 394.956Z" fill="#4F4FC1"/>
<path d="M74.9271 279.164C74.9271 279.164 75.3855 296.843 70.4826 330.763C66.941 355.248 62.7632 379.922 60.7141 391.752C59.9795 395.985 56.8871 399.076 53.2239 399.248L51.2543 399.34C47.2917 399.523 44.0776 395.608 44.3677 390.95L49.3408 310.919L50.5666 284.576L74.9271 279.164Z" fill="#020054"/>
<path d="M31.8903 292.616C31.8903 294.786 42.412 295.987 55.4601 295.906C68.5082 295.825 78.8802 295.141 78.8802 292.977C78.8802 290.807 68.5082 287.974 55.4601 288.055C42.412 288.136 31.8903 290.451 31.8903 292.616Z" fill="#4F4FC1"/>
<path d="M64.6766 294.226L32.4283 393.971C31.2727 398.247 27.9277 401.176 24.1148 401.251L22.4539 401.284C18.5334 401.359 15.5346 397.186 16.2504 392.646L33.0599 293.784C33.2798 292.643 36.7699 292.12 37.7617 292.024C45.9863 291.237 65.1819 289.999 64.6719 294.226H64.6766Z" fill="#020054"/>
<path d="M43.5208 234.976C43.5208 234.976 48.6437 223.797 61.5374 226.494C67.6333 227.771 74.1176 230.118 75.596 243.032C76.9247 254.625 80.3914 270.532 78.8756 292.971C78.8756 292.971 58.3233 284.075 31.8856 292.433C31.8856 292.433 32.8681 259.493 37.612 240.754C38.9453 235.476 41.7945 238.54 43.5161 234.976H43.5208Z" fill="#F2F2F2"/>
<path d="M32.9944 228.314L42.8378 241.044C42.8378 241.044 72.6907 250.791 75.7457 244.27C80.2557 234.642 75.4556 225.229 75.4556 225.229C75.4556 225.229 64.4286 225.687 59.0531 225.789C57.1022 225.827 52.494 225.347 50.5758 225.277C37.219 224.771 32.9944 228.314 32.9944 228.314Z" fill="#F2F2F2"/>
<path d="M46.8613 350.089L46.4075 349.965L53.2052 316.525C54.5853 311.7 57.4064 307.694 61.1632 305.217L61.3924 305.68C57.7386 308.092 54.9877 311.991 53.6543 316.67L46.8613 350.089Z" fill="#020202"/>
<path d="M64.7515 222.913L64.7187 222.741C64.7187 222.741 66.4123 222.305 66.9082 221.007C67.1655 220.334 67.0626 219.537 66.6041 218.638C66.3889 218.212 66.1877 217.83 66.0053 217.48C64.7468 215.062 64.2743 214.158 64.6672 212.214L64.817 212.251C64.4427 214.125 64.8684 214.949 66.1363 217.383C66.3187 217.733 66.5199 218.115 66.7351 218.541C67.2217 219.494 67.3246 220.345 67.0486 221.072C66.5199 222.45 64.8263 222.887 64.7515 222.903V222.913Z" fill="#4F4FC1"/>
<path d="M64.7374 212.235C64.7374 212.235 64.1058 215.245 65.79 218.449C67.4742 221.653 65.5421 223.921 63.2029 222.65C60.8683 221.379 59.9093 224.814 56.9291 222.833C53.949 220.851 64.7374 212.235 64.7374 212.235Z" fill="#4F4FC1"/>
<path d="M50.5759 225.277C51.8812 225.148 53.0274 224.233 53.5701 222.86L55.2683 218.557L55.7596 217.308L58.6602 209.968L58.0473 217.631L57.6777 222.229L57.5701 223.538C57.4859 224.61 58.1175 225.568 59.0344 225.784H59.0485C59.5257 226.721 60.1713 228.611 58.1268 229.311C55.7221 230.129 51.8952 227.878 50.5525 225.277C50.5618 225.277 50.5665 225.277 50.5712 225.277H50.5759Z" fill="#FDAD9B"/>
<path d="M55.2683 218.433C55.2683 218.476 55.2683 218.519 55.273 218.562C55.3899 221.039 57.6683 222.246 57.6683 222.246L57.6824 222.235L58.052 217.636C57.3549 217.324 56.3584 216.995 55.7689 217.313C55.4601 217.48 55.259 217.825 55.273 218.433H55.2683Z" fill="#4F4FC1"/>
<path d="M65.2052 211.352C65.2894 206.441 62.5572 202.391 59.0999 202.316C55.6425 202.235 52.7653 206.15 52.6811 211.067C52.5969 215.978 55.3291 220.022 58.7864 220.102C62.2438 220.183 65.121 216.268 65.2052 211.357V211.352Z" fill="#FDAD9B"/>
<path d="M53.4953 212.424C54.1924 213.22 55.1795 213.323 55.7082 212.655C56.2322 211.987 56.0965 210.797 55.3994 210C54.7023 209.203 53.7152 209.101 53.1865 209.769C52.6625 210.436 52.7982 211.627 53.4953 212.424Z" fill="#FDAD9B"/>
<path d="M62.2158 217.038C62.2158 217.038 60.0731 217.044 57.9537 216.134C57.9537 216.134 57.7339 218.557 60.045 218.772C61.3924 218.896 62.2158 217.038 62.2158 217.038Z" fill="#F2F2F2"/>
<path d="M62.2158 217.038C62.2158 217.038 61.6918 217.523 60.4801 217.485C59.2731 217.453 57.9491 216.128 57.9491 216.128C57.9491 216.128 60.5129 217 62.2111 217.033L62.2158 217.038Z" fill="#F2F2F2"/>
<path d="M59.5491 211.309C59.5912 211.298 59.6286 211.26 59.6473 211.212C59.6801 211.131 59.6473 211.034 59.5725 210.997C59.5304 210.975 58.5807 210.388 57.7198 211.427C57.6637 211.492 57.6637 211.594 57.7198 211.659C57.776 211.723 57.8555 211.707 57.921 211.659C58.5853 211.169 59.4228 211.282 59.4602 211.298C59.4883 211.314 59.521 211.314 59.5491 211.303V211.309Z" fill="#060633"/>
<path d="M58.3889 213.086C58.3701 213.479 58.5573 213.807 58.8052 213.818C59.0532 213.828 59.2637 213.527 59.2824 213.139C59.3012 212.746 59.114 212.418 58.8661 212.407C58.6181 212.391 58.4076 212.698 58.3889 213.086Z" fill="#060633"/>
<path d="M64.6157 212.283C64.6578 212.289 64.7046 212.278 64.7374 212.24C64.7935 212.176 64.7935 212.073 64.7374 212.009C64.7046 211.971 64.0216 211.008 62.8801 211.594C62.8099 211.632 62.7725 211.723 62.8052 211.81C62.838 211.896 62.9128 211.912 62.9923 211.896C63.769 211.734 64.5081 212.208 64.5315 212.24C64.5549 212.267 64.583 212.283 64.6111 212.289L64.6157 212.283Z" fill="#060633"/>
<path d="M62.9597 213.414C62.8147 213.769 62.8755 214.152 63.1 214.275C63.3246 214.399 63.624 214.211 63.7691 213.856C63.9141 213.5 63.8533 213.118 63.6287 212.994C63.4041 212.871 63.1047 213.059 62.9597 213.414Z" fill="#060633"/>
<path d="M61.7292 203.991C61.7292 203.991 61.5421 207.071 58.183 207.523C54.8239 207.97 52.4894 209.548 52.8917 212.337C53.2941 215.121 58.59 221.007 54.5853 223.145C50.5806 225.283 51.4975 221.142 47.1794 222.009C42.8612 222.875 42.2015 216.247 45.2285 212.483C48.2554 208.719 47.2355 198.541 58.328 199.246C69.4205 199.952 65.1772 210.054 65.1772 210.054C65.1772 210.054 61.6637 207.405 61.7292 203.996V203.991Z" fill="#4F4FC1"/>
<path d="M53.4297 223.683L53.3969 223.586C54.2203 223.226 54.7116 222.698 54.8987 221.971C55.4086 219.962 53.3829 216.812 51.5957 214.028C51.1232 213.291 50.6741 212.596 50.2764 211.928C49.1723 210.076 49.1115 207.895 50.1127 206.236C51.2261 204.395 53.2987 203.652 55.5162 204.298C59.6192 205.493 61.3923 202.677 61.411 202.65L61.4859 202.709C61.4672 202.736 59.6566 205.612 55.4929 204.4C53.3127 203.765 51.2776 204.492 50.1829 206.296C49.1864 207.943 49.2472 210.022 50.3466 211.869C50.7443 212.531 51.1887 213.231 51.6659 213.969C53.4671 216.769 55.5069 219.946 54.9829 222.003C54.7911 222.752 54.2671 223.317 53.425 223.689L53.4297 223.683Z" fill="#F2F2F2"/>
<path d="M64.0778 218.099C63.7456 218.094 63.4228 217.975 63.1234 217.755C61.7947 216.758 61.3362 213.834 62.1035 211.244C62.576 209.656 63.4228 208.476 64.3725 208.099C64.9386 207.879 65.5 207.943 65.9959 208.32C67.3246 209.311 67.7831 212.23 67.0158 214.825C66.5433 216.419 65.6965 217.598 64.7468 217.97C64.5222 218.056 64.2977 218.099 64.0778 218.094V218.099ZM62.3702 211.346C61.6403 213.807 62.0473 216.559 63.2778 217.485C63.6941 217.798 64.1713 217.851 64.6579 217.668C65.5281 217.324 66.3094 216.22 66.7538 214.723C67.4837 212.257 67.0766 209.505 65.8462 208.584C65.4298 208.272 64.9526 208.212 64.4661 208.401C63.5959 208.746 62.8146 209.844 62.3702 211.346Z" fill="#F2F2F2"/>
<path d="M54.8942 209.376C54.3468 211.901 55.1047 214.647 56.5831 215.509C58.0614 216.365 59.7036 215.014 60.2509 212.488C60.7983 209.963 60.0404 207.216 58.562 206.355C57.0836 205.498 55.4415 206.85 54.8942 209.376Z" fill="#F2F2F2"/>
<path d="M62.0474 211.454C61.5 213.991 62.1222 216.775 63.4368 217.668C64.7515 218.562 66.2626 217.227 66.8147 214.685C67.362 212.144 66.7398 209.365 65.4252 208.471C64.1105 207.577 62.5994 208.913 62.0474 211.454Z" fill="#F2F2F2"/>
<path d="M57.6308 215.848C57.294 215.843 56.9618 215.746 56.639 215.557C55.0062 214.631 54.1688 211.686 54.763 208.977C55.1092 207.41 55.8624 206.209 56.8308 205.698C57.5092 205.342 58.211 205.353 58.8659 205.725C60.494 206.651 61.3361 209.602 60.742 212.305C60.3958 213.877 59.6379 215.078 58.6694 215.59C58.3279 215.767 57.9817 215.859 57.6355 215.848H57.6308ZM57.8648 205.757C57.556 205.752 57.2472 205.827 56.9478 205.988C56.0682 206.457 55.3524 207.609 55.0296 209.058C54.4635 211.621 55.2402 214.405 56.7606 215.272C57.3361 215.59 57.9583 215.601 58.5478 215.299C59.432 214.831 60.1478 213.678 60.4706 212.224C61.032 209.661 60.2601 206.877 58.7443 206.01C58.4589 205.848 58.1642 205.762 57.8694 205.757H57.8648Z" fill="#F2F2F2"/>
<path d="M62.3233 212.407C62.2672 212.407 62.2063 212.38 62.1596 212.332C62.1315 212.305 61.4672 211.68 60.2976 211.906C60.1619 211.928 60.0215 211.826 59.9935 211.664C59.9701 211.503 60.0636 211.347 60.204 211.32C61.6169 211.013 62.459 211.842 62.4964 211.874C62.604 211.982 62.618 212.175 62.5198 212.299C62.4683 212.375 62.3935 212.407 62.3186 212.407H62.3233Z" fill="#F2F2F2"/>
<path d="M32.9242 228.401C31.8856 229.553 32.9335 232.822 36.4236 236.747C39.9137 240.673 41.5512 242.1 43.0623 240.172C44.0635 238.901 43.9465 233.646 40.3394 230.339C37.5371 227.771 33.6634 227.577 32.9242 228.401Z" fill="#4F4FC1"/>
<path d="M38.253 291.981C38.253 291.981 55.9046 288.615 73.1633 292.998C73.9539 293.198 74.4966 294.048 74.4171 294.975L73.8042 302.39L55.7409 297.215L38.2483 291.981H38.253Z" fill="#6949A4"/>
<path d="M5.43388 293.413C4.81166 293.311 4.23153 293.806 4.14264 294.522L2.72977 305.599C2.64088 306.315 3.07129 306.983 3.69352 307.085C4.31575 307.188 4.89587 306.692 4.98476 305.976L6.39764 294.899C6.48653 294.188 6.05611 293.515 5.43856 293.413H5.43388Z" fill="#FDAD9B"/>
<path d="M8.32045 293.903C7.7029 293.795 7.1181 294.296 7.02921 295.007L5.44791 307.392C5.35902 308.108 5.78943 308.776 6.40698 308.878C7.02921 308.981 7.60933 308.485 7.69822 307.775L9.27953 295.389C9.36842 294.678 8.938 294.005 8.31577 293.903H8.32045Z" fill="#FDAD9B"/>
<path d="M9.58233 287.806L9.93432 287.571C10.5898 287.133 11.4339 287.391 11.8145 288.145L15.519 295.489C15.9019 296.248 15.6779 297.22 15.0184 297.66L14.6664 297.896C14.011 298.334 13.1669 298.076 12.7863 297.321L9.08178 289.978C8.69888 289.218 8.9252 288.252 9.58064 287.813L9.58233 287.806Z" fill="#FDAD9B"/>
<path d="M11.2024 294.393C10.5802 294.291 10.0001 294.786 9.91119 295.497L8.64334 305.427C8.55445 306.138 8.98486 306.811 9.60709 306.913C10.2246 307.015 10.8094 306.52 10.8983 305.804L12.1662 295.874C12.2551 295.158 11.8247 294.49 11.2024 294.388V294.393Z" fill="#FDAD9B"/>
<path d="M4.28289 286.773C4.28289 286.773 0.203313 292.616 1.25595 297.802C1.62087 299.595 10.1496 300.763 11.1601 299.062C12.1707 297.36 12.4607 290.554 12.4607 290.554L4.28289 286.773Z" fill="#FDAD9B"/>
<path d="M2.57072 292.918C1.95317 292.815 1.37305 293.311 1.27948 294.021L0.0116288 303.93C-0.077261 304.641 0.353153 305.308 0.970703 305.416C1.58825 305.518 2.16838 305.023 2.26194 304.312L3.52979 294.404C3.61868 293.693 3.18827 293.025 2.57072 292.918Z" fill="#FDAD9B"/>
<path d="M13.827 292.088C18.9966 278.728 27.3242 259.994 37.6541 246.623C40.0494 243.527 41.0038 242.385 42.6179 240.813C43.9185 239.548 43.4647 235.471 41.612 232.886C39.8717 230.458 36.9056 229.709 35.095 230.889C33.743 231.766 32.55 233.021 29.8365 236.424C20.3955 248.25 11.8901 264.964 3.745 287.624L13.827 292.083V292.088Z" fill="#FDAD9B"/>
<g opacity="0.5">
<path d="M19.6656 262.778C19.4083 262.778 19.1603 262.713 18.9358 262.573C18.5568 262.347 18.2855 261.943 18.1451 261.41C17.9206 260.543 18.0749 259.418 18.5662 258.405C19.3896 256.698 20.8352 255.848 21.8645 256.467C22.2434 256.693 22.5148 257.097 22.6551 257.63C22.8797 258.497 22.7253 259.622 22.234 260.635C21.5931 261.965 20.5732 262.773 19.6656 262.773V262.778ZM21.144 256.914C20.4469 256.914 19.5814 257.625 19.0574 258.718C18.641 259.585 18.5007 260.522 18.6831 261.227C18.7486 261.48 18.8937 261.825 19.1978 262.008C19.9276 262.449 21.0972 261.679 21.7475 260.328C22.1639 259.461 22.3042 258.524 22.1218 257.818C22.0563 257.565 21.9112 257.221 21.6071 257.038C21.4668 256.951 21.3124 256.914 21.144 256.914Z" fill="#E08B65"/>
</g>
<path d="M128.415 207.227L129.51 216.64C129.931 220.237 132.804 222.768 135.929 222.283L145.875 220.754C149.005 220.275 151.199 216.963 150.783 213.361L150.006 206.699C149.674 203.829 151.012 201.04 153.304 199.844C153.744 199.618 154.175 199.376 154.61 199.128C156.715 197.922 159.251 198.385 160.977 200.216L164.869 204.352C167.19 206.818 170.806 206.651 172.944 203.98L179.751 195.493C181.89 192.828 181.749 188.671 179.433 186.204L175.541 182.063C173.819 180.233 173.22 177.362 174.091 174.858C174.268 174.347 174.441 173.83 174.601 173.313C175.452 170.583 177.763 168.822 180.28 168.978L186.105 169.339C189.258 169.533 191.948 166.749 192.117 163.125L192.65 151.59C192.818 147.966 190.4 144.864 187.251 144.671L179.008 144.159C176.785 144.019 174.849 142.403 174.011 140.034C173.305 138.042 172.472 136.092 171.517 134.208C170.245 131.693 170.512 128.521 172.229 126.378L176.636 120.885C178.778 118.214 178.633 114.052 176.313 111.591L168.94 103.761C166.619 101.3 163.007 101.462 160.865 104.133L154.937 111.521C153.431 113.395 151.12 114.138 149.005 113.357C148.495 113.169 147.98 112.991 147.466 112.824C145.276 112.124 143.672 109.965 143.372 107.375L142.142 96.7501C141.725 93.1476 138.848 90.6221 135.723 91.1013L125.772 92.6306C122.642 93.1099 120.448 96.4216 120.864 100.019L121.926 109.146C122.254 111.946 120.981 114.666 118.782 115.92C118.759 115.937 118.736 115.947 118.712 115.964C116.598 117.17 114.053 116.739 112.317 114.892L106.801 109.022C104.481 106.556 100.864 106.723 98.7261 109.394L91.9144 117.886C89.7716 120.557 89.9213 124.719 92.2372 127.18L97.7577 133.039C99.4934 134.881 100.073 137.767 99.194 140.293C99.1846 140.325 99.1706 140.357 99.1612 140.39C98.2536 143.017 95.9986 144.687 93.5424 144.536L85.5564 144.04C82.4031 143.847 79.7131 146.631 79.5446 150.26L79.016 161.8C78.8476 165.424 81.2663 168.52 84.4195 168.714L93.7202 169.285C95.9893 169.425 97.9869 171.094 98.7682 173.55C98.9507 174.126 99.1472 174.697 99.3483 175.268C100.195 177.626 99.7367 180.34 98.2302 182.214L92.298 189.602C90.1553 192.268 90.3003 196.43 92.6208 198.897L99.994 206.737C102.314 209.203 105.926 209.037 108.069 206.366L112.481 200.868C114.198 198.73 116.92 198.17 119.199 199.43C120.906 200.372 122.661 201.169 124.443 201.815C126.567 202.591 128.125 204.68 128.42 207.222L128.415 207.227ZM120.874 176.635C112.312 167.535 112.579 146.754 120.485 136.895C128.383 127.051 143.447 128.747 151.999 137.848C160.561 146.938 158.058 164.562 150.151 174.417C142.254 184.271 129.44 185.731 120.878 176.63L120.874 176.635Z" fill="#9A62A4"/>
<path d="M153.824 340.784C154.652 343.724 155.662 346.616 156.86 349.432C158.455 353.191 157.786 357.703 155.129 360.563L148.312 367.913C145 371.483 144.832 377.466 147.933 381.273L157.796 393.389C160.897 397.202 166.095 397.396 169.407 393.826L178.572 383.939C180.898 381.429 184.285 380.643 187.237 382.022C187.948 382.356 188.668 382.668 189.389 382.964C192.467 384.23 194.568 387.514 194.764 391.273L195.569 406.658C195.84 411.87 199.733 415.839 204.262 415.527L218.666 414.531C223.195 414.218 226.648 409.733 226.372 404.52L225.675 391.316C225.459 387.261 227.527 383.508 230.797 381.979C230.835 381.963 230.877 381.941 230.914 381.925C234.058 380.444 237.665 381.376 239.986 384.23L247.359 393.298C250.461 397.11 255.659 397.31 258.971 393.739L269.507 382.388C272.819 378.818 272.987 372.835 269.886 369.023L262.503 359.954C260.183 357.106 259.616 352.895 261.1 349.384C261.118 349.346 261.132 349.303 261.151 349.265C262.69 345.609 266.073 343.482 269.577 343.993L280.987 345.652C285.488 346.309 289.596 342.636 290.166 337.456L291.977 320.978C292.548 315.798 289.357 311.07 284.856 310.413L271.574 308.485C268.332 308.017 265.624 305.384 264.725 301.77C264.515 300.919 264.29 300.074 264.047 299.234C263.05 295.75 263.949 291.91 266.279 289.401L275.444 279.52C278.756 275.95 278.924 269.972 275.822 266.16L265.97 254.044C262.868 250.231 257.67 250.037 254.358 253.608L247.546 260.953C244.894 263.817 240.936 264.291 237.778 262.207C235.415 260.646 232.973 259.294 230.475 258.147C227.504 256.785 225.464 253.597 225.272 249.924L224.552 236.29C224.276 231.077 220.383 227.114 215.859 227.431L201.459 228.438C196.93 228.756 193.482 233.236 193.758 238.449L194.268 248.083C194.488 252.245 192.313 256.079 188.912 257.522C188.266 257.797 187.625 258.082 186.989 258.384C183.868 259.854 180.28 258.89 177.974 256.063L172.762 249.666C169.66 245.859 164.467 245.665 161.159 249.23L150.633 260.576C147.321 264.146 147.152 270.128 150.254 273.941L155.461 280.338C157.767 283.176 158.371 287.366 156.888 290.855C156.584 291.571 156.289 292.293 156.008 293.02C154.535 296.827 151.073 299.067 147.48 298.545L139.157 297.333C134.656 296.676 130.544 300.343 129.978 305.524L128.172 321.991C127.601 327.171 130.787 331.899 135.288 332.556L147.054 334.274C150.231 334.737 152.86 337.295 153.847 340.8L153.824 340.784ZM187.775 297.974C199.999 284.792 221.983 280.468 233.417 294.538C244.87 308.593 247.144 333.493 234.933 346.659C222.708 359.841 196.757 360.493 185.309 346.422C173.857 332.351 175.55 311.135 187.775 297.969V297.974Z" fill="#020054"/>
<path d="M461.092 277.543C458.936 277.543 457.092 275.686 456.802 273.219L455.993 266.289C455.806 264.679 454.828 263.333 453.504 262.859C453.148 262.735 452.788 262.595 452.433 262.45C452.054 262.293 451.656 262.213 451.249 262.213C450.248 262.213 449.279 262.703 448.596 263.559L444.208 269.041C443.389 270.064 442.229 270.645 441.022 270.645C439.932 270.645 438.889 270.177 438.089 269.326L432.956 263.882C432.105 262.977 431.609 261.749 431.562 260.419C431.515 259.089 431.922 257.813 432.708 256.838L436.479 252.137C437.532 250.823 437.738 248.885 436.989 247.312L436.961 247.253C436.329 245.918 435.118 245.089 433.794 245.089C433.635 245.089 433.471 245.099 433.307 245.126L428.133 245.929C427.941 245.961 427.745 245.972 427.548 245.972C425.391 245.972 423.548 244.114 423.258 241.653L422.327 233.689C422.173 232.369 422.472 231.055 423.178 230C423.88 228.939 424.9 228.261 426.046 228.083L431.221 227.286C432.694 227.06 433.915 225.789 434.252 224.136L434.266 224.071C434.627 222.326 433.986 220.522 432.671 219.575L427.955 216.182C426.973 215.477 426.29 214.373 426.032 213.075C425.77 211.777 425.967 210.442 426.58 209.311L430.28 202.499C431.076 201.034 432.451 200.157 433.957 200.157C434.767 200.157 435.562 200.421 436.25 200.916L441.738 204.869C442.318 205.283 442.982 205.504 443.661 205.504C444.395 205.504 445.097 205.251 445.691 204.772C445.995 204.524 446.313 204.282 446.631 204.05C447.801 203.194 448.433 201.594 448.245 199.984L447.436 193.054C447.118 190.329 448.783 187.814 451.151 187.448L458.061 186.377C458.252 186.344 458.449 186.334 458.645 186.334C460.802 186.334 462.646 188.191 462.931 190.658L463.534 195.811C463.745 197.631 464.966 199.064 466.561 199.365C467.862 199.613 469.163 199.968 470.426 200.426C470.786 200.555 471.16 200.62 471.535 200.62C472.545 200.62 473.513 200.135 474.192 199.29L478.084 194.433C478.903 193.415 480.063 192.828 481.27 192.828C482.36 192.828 483.404 193.296 484.208 194.147L489.336 199.591C490.187 200.496 490.679 201.724 490.725 203.054C490.772 204.384 490.365 205.655 489.579 206.635L486.828 210.065C485.738 211.422 485.556 213.404 486.374 214.998C486.548 215.331 486.711 215.671 486.875 216.01C487.493 217.324 488.7 218.137 490.024 218.137C490.183 218.137 490.346 218.126 490.505 218.099L494.159 217.539C494.351 217.512 494.548 217.496 494.739 217.496C496.896 217.496 498.739 219.354 499.029 221.815L499.961 229.774C500.115 231.093 499.815 232.407 499.109 233.462C498.407 234.523 497.387 235.202 496.241 235.379L492.592 235.945C491.114 236.171 489.897 237.426 489.565 239.068C489.49 239.45 489.406 239.827 489.317 240.204C488.896 241.987 489.528 243.839 490.889 244.819L494.332 247.296C495.315 248.002 495.998 249.106 496.26 250.403C496.522 251.701 496.325 253.037 495.713 254.167L492.017 260.974C491.221 262.439 489.846 263.316 488.339 263.316C487.53 263.316 486.739 263.053 486.047 262.557L481.181 259.057C480.611 258.648 479.951 258.427 479.277 258.427C478.604 258.427 477.883 258.664 477.289 259.105C476.18 259.929 475.011 260.672 473.808 261.308C472.339 262.089 471.492 263.833 471.703 265.654L472.306 270.807C472.461 272.126 472.157 273.435 471.455 274.496C470.753 275.556 469.733 276.235 468.587 276.413L461.672 277.479C461.481 277.511 461.284 277.522 461.092 277.522V277.543ZM451.258 261.389C451.745 261.389 452.222 261.486 452.681 261.669C453.027 261.809 453.378 261.943 453.724 262.067C455.314 262.633 456.484 264.248 456.709 266.176L457.518 273.106C457.757 275.163 459.296 276.714 461.092 276.714C461.251 276.714 461.415 276.703 461.579 276.676L468.494 275.61C469.448 275.465 470.299 274.894 470.884 274.011C471.469 273.128 471.722 272.035 471.591 270.936L470.987 265.783C470.734 263.602 471.745 261.507 473.504 260.576C474.674 259.956 475.811 259.235 476.896 258.432C477.607 257.905 478.43 257.625 479.277 257.625C480.124 257.625 480.877 257.883 481.56 258.379L486.426 261.879C487.001 262.293 487.661 262.509 488.335 262.509C489.588 262.509 490.735 261.776 491.404 260.554L495.1 253.747C495.61 252.805 495.773 251.69 495.558 250.608C495.343 249.526 494.772 248.605 493.953 248.018L490.51 245.541C488.877 244.367 488.124 242.143 488.625 240.011C488.709 239.644 488.793 239.278 488.868 238.907C489.27 236.936 490.73 235.423 492.498 235.153L496.148 234.588C497.107 234.443 497.953 233.872 498.538 232.989C499.123 232.105 499.376 231.012 499.245 229.908L498.314 221.95C498.075 219.892 496.536 218.347 494.739 218.347C494.58 218.347 494.417 218.358 494.258 218.385L490.604 218.945C490.412 218.972 490.215 218.988 490.024 218.988C488.438 218.988 486.992 218.008 486.243 216.43C486.084 216.096 485.925 215.768 485.757 215.445C484.779 213.538 484.999 211.163 486.304 209.532L489.055 206.102C489.71 205.283 490.047 204.222 490.01 203.113C489.972 202.004 489.56 200.975 488.849 200.221L483.722 194.777C483.053 194.066 482.183 193.673 481.275 193.673C480.269 193.673 479.301 194.163 478.618 195.009L474.725 199.866C473.911 200.884 472.751 201.465 471.539 201.465C471.09 201.465 470.646 201.384 470.215 201.228C468.985 200.781 467.717 200.437 466.449 200.194C464.536 199.828 463.081 198.116 462.823 195.935L462.22 190.782C461.981 188.725 460.442 187.174 458.645 187.174C458.482 187.174 458.318 187.184 458.159 187.211L451.249 188.283C449.275 188.59 447.885 190.685 448.152 192.957L448.961 199.887C449.186 201.815 448.423 203.727 447.02 204.761C446.711 204.987 446.402 205.224 446.103 205.466C445.387 206.042 444.54 206.344 443.661 206.344C442.846 206.344 442.046 206.08 441.354 205.579L435.866 201.627C435.291 201.212 434.631 200.991 433.953 200.991C432.699 200.991 431.553 201.724 430.884 202.946L427.183 209.758C426.673 210.7 426.509 211.815 426.725 212.897C426.94 213.98 427.511 214.901 428.329 215.488L433.045 218.88C434.622 220.016 435.389 222.181 434.959 224.27L434.945 224.335C434.538 226.322 433.078 227.846 431.31 228.115L426.135 228.912C425.176 229.058 424.329 229.628 423.745 230.512C423.16 231.395 422.907 232.488 423.038 233.586L423.969 241.551C424.208 243.608 425.747 245.153 427.543 245.153C427.707 245.153 427.871 245.142 428.03 245.115L433.204 244.313C433.396 244.281 433.593 244.27 433.784 244.27C435.37 244.27 436.825 245.261 437.579 246.86L437.607 246.919C438.5 248.804 438.257 251.13 436.994 252.703L433.223 257.404C432.568 258.222 432.231 259.283 432.269 260.392C432.306 261.502 432.722 262.53 433.429 263.284L438.561 268.728C439.23 269.439 440.1 269.827 441.008 269.827C442.014 269.827 442.982 269.337 443.665 268.486L448.054 263.004C448.872 261.981 450.033 261.394 451.235 261.394L451.258 261.389Z" fill="#9A62A4"/>
<path d="M462.327 250.323C454.524 250.323 445.831 241.481 444.779 232.472C444.259 228.002 445.64 223.447 448.667 219.639C451.525 216.048 455.474 213.63 459.506 213.011C460.002 212.935 460.503 212.897 461.003 212.897C468.793 212.897 475.1 222.116 476.105 230.722C476.648 235.347 475.717 239.892 473.485 243.527C471.207 247.226 467.787 249.601 463.848 250.21C463.357 250.285 462.847 250.323 462.332 250.323H462.327ZM460.999 213.721C460.536 213.721 460.063 213.759 459.6 213.829C455.731 214.427 451.941 216.748 449.195 220.199C446.313 223.823 444.999 228.142 445.49 232.364C445.962 236.424 448.143 240.711 451.469 244.114C454.809 247.533 458.767 249.499 462.327 249.499C462.809 249.499 463.287 249.461 463.745 249.391C467.483 248.815 470.735 246.559 472.891 243.048C475.02 239.591 475.904 235.25 475.385 230.835C474.421 222.574 468.409 213.727 460.999 213.727V213.721Z" fill="#9A62A4"/>
<path d="M409.073 160.68L425.747 160.158C432.119 159.958 437.148 153.852 436.98 146.512L436.442 123.179C436.273 115.84 430.963 110.045 424.587 110.245L412.792 110.611C407.707 110.767 403.127 107.073 401.527 101.516C401.223 100.455 400.9 99.3995 400.558 98.3494C398.907 93.2283 400.249 87.4557 403.824 83.8586L411.88 75.7435C416.68 70.9078 417.167 62.5074 412.965 56.9824L399.604 39.4222C395.403 33.9026 388.114 33.3426 383.314 38.1729L375.243 46.2934C371.674 49.8851 366.537 50.6551 362.35 48.0973C361.494 47.575 360.633 47.0688 359.763 46.5841C355.178 44.0263 352.6 38.3075 353.409 32.5187L355.285 19.1156C356.301 11.8675 352.015 5.04484 345.718 3.87631L325.685 0.171483C319.388 -0.997045 313.465 3.93016 312.45 11.1783L309.792 30.1386C309.077 35.2489 305.839 39.3791 301.516 40.8115C297.881 42.0177 294.302 43.5201 290.803 45.3294C286.134 47.7365 280.655 46.4387 277.287 42.007L268.641 30.634C264.44 25.1091 257.142 24.549 252.342 29.3901L237.09 44.764C232.29 49.5997 231.808 57.9948 236.009 63.5197L247.64 78.8129C250.592 82.6954 251.387 88.2096 249.572 92.9268C249.132 94.0684 248.716 95.2154 248.318 96.3678C246.625 101.284 242.512 104.531 237.923 104.671L219.106 105.242C212.73 105.436 207.696 111.542 207.864 118.882L208.407 142.231C208.575 149.571 213.885 155.36 220.262 155.166L236.43 154.67C241.389 154.52 245.871 158.036 247.584 163.399C247.602 163.459 247.621 163.518 247.64 163.572C249.296 168.725 247.995 174.519 244.402 178.138L232.973 189.645C228.168 194.481 227.686 202.882 231.888 208.406L245.258 225.977C249.46 231.502 256.758 232.057 261.558 227.216L272.969 215.703C276.562 212.079 281.722 211.363 285.942 213.931C285.993 213.964 286.05 213.996 286.101 214.028C290.494 216.694 292.931 222.267 292.141 227.911L289.568 246.279C288.552 253.532 292.838 260.355 299.14 261.518L319.177 265.217C325.474 266.381 331.397 261.448 332.408 254.2L335.393 232.8C336.123 227.577 339.463 223.317 343.921 222.036C344.969 221.734 346.008 221.411 347.047 221.061C351.346 219.612 355.987 221.249 358.939 225.132L370.57 240.436C374.771 245.961 382.069 246.521 386.869 241.685L402.135 226.306C406.935 221.47 407.422 213.07 403.22 207.55L394.565 196.172C391.197 191.745 390.804 185.327 393.489 180.319C395.501 176.571 397.265 172.688 398.78 168.703C400.586 163.954 404.572 160.798 409.073 160.658V160.68ZM354.032 171.574C336.305 189.43 300.075 184.357 284.557 163.959C269.062 143.583 275.252 109.098 292.978 91.2628C310.681 73.4064 340.923 82.9754 356.436 103.379C371.95 123.755 371.753 153.717 354.032 171.574Z" fill="#6949A4"/>
<path d="M322.84 280.058C322.209 280.058 321.573 279.999 320.941 279.886L300.903 276.187C297.764 275.605 295.009 273.656 293.147 270.689C291.285 267.721 290.536 264.097 291.041 260.49L293.614 242.122C294.382 236.656 292.024 231.244 287.757 228.654L287.598 228.557C286.003 227.588 284.206 227.071 282.405 227.071C279.687 227.071 277.062 228.207 275.018 230.275L263.607 241.788C261.436 243.974 258.653 245.18 255.771 245.18C252.341 245.18 249.076 243.479 246.816 240.506L233.445 222.935C231.349 220.183 230.316 216.656 230.526 213.005C230.737 209.354 232.173 206.016 234.564 203.609L245.993 192.101C249.464 188.606 250.727 182.931 249.137 177.971L249.081 177.799C247.429 172.624 243.055 169.183 238.264 169.334L222.096 169.829C215.457 170.034 210.063 164.105 209.885 156.507L209.342 133.158C209.258 129.501 210.414 126.023 212.603 123.373C214.788 120.718 217.745 119.205 220.921 119.108L239.738 118.538C244.224 118.403 248.182 115.242 249.82 110.487C250.217 109.329 250.643 108.166 251.083 107.03C252.828 102.507 252.089 97.1325 249.207 93.3416L237.576 78.0484C233.258 72.3673 233.759 63.7029 238.69 58.7273L253.941 43.3533C256.112 41.167 258.891 39.9608 261.773 39.9608C265.207 39.9608 268.473 41.6624 270.728 44.6349L279.373 56.0079C281.488 58.7919 284.562 60.3858 287.799 60.3858C289.423 60.3858 290.999 59.9981 292.487 59.2281C295.963 57.4349 299.584 55.911 303.247 54.694C307.439 53.3047 310.588 49.239 311.275 44.3388L313.933 25.3784C314.868 18.7065 319.799 13.8655 325.661 13.8655C326.293 13.8655 326.934 13.9247 327.566 14.0432L347.594 17.7534C350.733 18.335 353.484 20.2897 355.346 23.2514C357.208 26.2185 357.952 29.8372 357.447 33.4504L355.571 46.8535C354.78 52.5131 357.255 57.9949 361.737 60.4935C362.607 60.9782 363.482 61.4897 364.333 62.0121C365.896 62.9652 367.66 63.4714 369.437 63.4714C372.151 63.4714 374.78 62.3298 376.839 60.262L384.909 52.1415C387.08 49.9606 389.859 48.7598 392.736 48.7598C396.17 48.7598 399.431 50.4614 401.69 53.4339L415.052 70.9941C417.148 73.7458 418.182 77.2729 417.971 80.9239C417.761 84.5749 416.329 87.9135 413.934 90.3206L405.877 98.4357C402.401 101.936 401.129 107.585 402.71 112.485C403.052 113.54 403.375 114.612 403.683 115.667C405.237 121.058 409.644 124.639 414.607 124.488L426.402 124.122C433.045 123.912 438.439 129.846 438.612 137.444L439.155 160.777C439.328 168.321 434.14 174.627 427.585 174.832L410.911 175.354C406.598 175.489 402.677 178.553 400.928 183.157C399.398 187.174 397.611 191.099 395.613 194.82C392.974 199.731 393.395 205.913 396.652 210.2L405.302 221.578C407.393 224.33 408.432 227.857 408.221 231.508C408.011 235.159 406.579 238.492 404.184 240.905L388.918 256.284C386.747 258.47 383.968 259.671 381.091 259.671C377.657 259.671 374.392 257.964 372.132 254.992L360.502 239.688C358.35 236.855 355.262 235.229 352.034 235.229C350.995 235.229 349.961 235.401 348.969 235.735C347.931 236.085 346.878 236.414 345.83 236.715C341.521 237.954 338.274 242.052 337.563 247.156L334.579 268.556C333.648 275.233 328.712 280.08 322.845 280.08L322.84 280.058ZM282.405 226.268C284.323 226.268 286.232 226.812 287.925 227.846L288.084 227.943C292.618 230.695 295.121 236.44 294.307 242.245L291.734 260.613C291.256 264.017 291.963 267.425 293.713 270.22C295.467 273.015 298.059 274.851 301.016 275.395L321.053 279.094C321.647 279.202 322.246 279.261 322.84 279.261C328.366 279.261 333.011 274.7 333.886 268.411L336.871 247.011C337.629 241.594 341.077 237.237 345.657 235.924C346.696 235.627 347.739 235.299 348.768 234.954C349.825 234.599 350.925 234.416 352.029 234.416C355.458 234.416 358.733 236.139 361.021 239.144L372.651 254.448C374.78 257.248 377.854 258.853 381.087 258.853C383.795 258.853 386.415 257.722 388.46 255.659L403.725 240.28C405.976 238.013 407.328 234.868 407.524 231.433C407.725 227.997 406.748 224.674 404.778 222.084L396.128 210.706C392.666 206.156 392.221 199.597 395.019 194.384C396.998 190.696 398.771 186.802 400.287 182.817C402.144 177.928 406.308 174.681 410.888 174.535L427.562 174.013C433.733 173.819 438.622 167.885 438.458 160.782L437.915 137.449C437.751 130.293 432.675 124.714 426.416 124.903L414.621 125.269C409.368 125.43 404.666 121.623 403.019 115.899C402.72 114.854 402.392 113.788 402.055 112.743C400.376 107.531 401.723 101.532 405.419 97.811L413.475 89.696C415.726 87.4289 417.078 84.2841 417.274 80.8485C417.471 77.4129 416.497 74.0905 414.523 71.5003L401.162 53.9401C399.033 51.1453 395.959 49.5406 392.731 49.5406C390.022 49.5406 387.407 50.6714 385.363 52.7285L377.292 60.8489C375.108 63.046 372.319 64.2576 369.437 64.2576C367.547 64.2576 365.667 63.7191 364.006 62.7067C363.159 62.1898 362.293 61.6836 361.428 61.2043C356.67 58.5496 354.041 52.7285 354.883 46.7189L356.759 33.3158C357.236 29.9179 356.53 26.5039 354.78 23.7145C353.025 20.9251 350.434 19.0835 347.482 18.5342L327.453 14.824C326.859 14.7163 326.256 14.6571 325.657 14.6571C320.136 14.6571 315.491 19.2181 314.611 25.4969L311.954 44.4572C311.224 49.6591 307.879 53.9778 303.434 55.4532C299.804 56.6595 296.216 58.1726 292.768 59.9496C291.186 60.7628 289.516 61.1774 287.794 61.1774C284.356 61.1774 281.095 59.4812 278.849 56.5248L270.204 45.1519C268.075 42.3517 265.001 40.747 261.768 40.747C259.055 40.747 256.435 41.8832 254.395 43.9403L239.144 59.3142C234.498 63.9991 234.025 72.1573 238.096 77.5045L249.726 92.7977C252.786 96.8202 253.567 102.528 251.715 107.337C251.279 108.462 250.863 109.615 250.465 110.767C248.725 115.818 244.519 119.178 239.757 119.318L220.94 119.889C217.95 119.981 215.167 121.408 213.108 123.906C211.05 126.405 209.96 129.679 210.039 133.12L210.582 156.469C210.746 163.626 215.836 169.204 222.082 169.016L238.25 168.52C243.326 168.364 247.981 172.015 249.736 177.508L249.792 177.686C251.481 182.947 250.143 188.978 246.456 192.688L235.027 204.196C232.772 206.463 231.424 209.607 231.223 213.043C231.027 216.479 232 219.801 233.974 222.391L247.345 239.962C249.474 242.757 252.547 244.362 255.775 244.362C258.489 244.362 261.109 243.225 263.153 241.163L274.564 229.65C276.739 227.458 279.523 226.252 282.41 226.252L282.405 226.268Z" fill="#020054"/>
<path d="M298.611 119.324C297.825 120.939 289.914 135.042 291.57 148.838L300.183 145.258L304.118 126.663L298.616 119.324H298.611Z" fill="#FDAD9B"/>
<path d="M332.993 113.54C332.993 113.54 327.702 102.62 314.827 105.64C301.947 108.661 294.92 129.878 298.415 171.897C298.415 171.897 318.873 162.532 345.475 170.082C345.475 170.082 341.096 129.388 332.998 113.54H332.993Z" fill="#F2F2F2"/>
<path d="M342.817 109.13L333.765 119.528C333.765 119.528 310.56 126.744 304.113 126.658C297.666 126.572 295.13 121.149 295.13 121.149C295.13 121.149 300.571 111.236 311.58 106.75C312.614 106.325 313.694 105.953 314.826 105.641C316.726 105.118 318.658 104.811 320.576 104.682C331.973 103.901 342.817 109.13 342.817 109.13Z" fill="#F2F2F2"/>
<path d="M342.817 109.13C344.263 110.939 342.031 112.916 339.533 115.791C337.035 118.667 334.452 120.336 333.765 119.534C333.077 118.726 334.551 115.748 337.049 112.873C339.547 110.002 342.153 108.301 342.817 109.13Z" fill="#4F4FC1"/>
<path d="M334.967 119.571C334.967 119.571 334.831 117.493 337.1 114.843C338.467 113.244 340.198 112.199 341.358 111.623C342.046 111.279 342.846 111.666 343.117 112.479L343.842 114.633L340.464 117.137L334.967 119.571Z" fill="#FDAD9B"/>
<path d="M318.971 158.095C318.971 158.095 346.897 140.675 356.909 159.678C364.319 173.744 353.18 186.845 311.865 185.515C311.865 185.515 307.781 183.313 308.777 171.897C309.17 167.373 318.971 158.101 318.971 158.101V158.095Z" fill="#F2F2F2"/>
<path d="M318.971 158.095C318.971 158.095 281.778 140.556 274.419 151.52C265.96 164.121 274.073 185.51 313.278 177.863L318.055 171.891L318.971 158.095Z" fill="#F2F2F2"/>
<path d="M311.818 185.591C307.234 181.821 308.684 171.983 308.698 171.881L308.707 171.827L308.749 171.811L336.983 159.985L337.035 160.152L308.843 171.961C308.735 172.731 307.57 181.88 311.907 185.44L311.818 185.585V185.591Z" fill="#020202"/>
<path d="M308.539 175.036C308.539 175.036 301.685 175.359 298.466 177.174C295.247 178.994 296.964 183.426 303.505 183.307C310.041 183.189 309.545 182.069 309.545 182.069C309.545 182.069 308.305 178.176 308.539 175.031V175.036Z" fill="#4F4FC1"/>
<path d="M317.315 158.935C315.046 158.935 313.18 158.273 311.668 156.964C308.815 154.487 308.281 150.535 308.698 147.901L311.43 146.071C311.565 145.209 316.838 148.413 316.829 148.413C316.852 148.424 319.346 149.253 327.987 144.17C334.003 140.632 337.035 135.608 337.255 128.817C337.423 123.696 335.439 120.821 334.972 119.577C334.911 119.41 337.877 115.985 337.793 115.635L340.02 114.332C339.949 114.036 342.158 113.034 342.13 112.948L343.846 114.633C344.693 116.89 346.499 122.07 346.265 129.21C346.022 136.625 343.365 146.868 332.062 153.512C325.895 157.137 321.058 158.93 317.32 158.93L317.315 158.935Z" fill="#FDAD9B"/>
<path d="M315.482 159.35H291.383C290.878 159.35 290.429 158.978 290.27 158.434L285.259 141.219C285.006 140.352 285.573 139.458 286.373 139.458H309.549C310.607 139.458 311.542 140.233 311.875 141.375L316.59 157.589C316.843 158.456 316.277 159.35 315.477 159.35H315.482Z" fill="#4F4FC1"/>
<path d="M313.966 159.35H289.867C289.362 159.35 288.913 158.978 288.754 158.434L283.743 141.219C283.491 140.352 284.057 139.458 284.857 139.458H308.033C309.091 139.458 310.026 140.233 310.359 141.375L315.074 157.589C315.327 158.456 314.761 159.35 313.961 159.35H313.966Z" fill="#4F4FC1"/>
<path d="M297.081 148.838C297.081 148.187 297.736 147.917 298.307 147.917C298.878 147.917 299.813 148.634 299.809 149.549C299.804 150.54 299.13 150.664 298.56 150.664C297.989 150.664 297.081 149.668 297.081 148.833V148.838Z" fill="#FFBA41"/>
<path d="M289.853 156.916H322.826C323.598 156.916 324.23 157.637 324.23 158.531C324.23 158.984 323.912 159.35 323.519 159.35H289.858V156.916H289.853Z" fill="#4F4FC1"/>
<path d="M312.253 148.16C312.239 148.106 311.06 143.007 310.293 141.418C309.54 139.862 308.609 139.544 308.6 139.544L308.642 139.372C308.684 139.382 309.643 139.706 310.429 141.332C311.205 142.937 312.356 147.901 312.403 148.117L312.253 148.165V148.16Z" fill="#4F4FC1"/>
<path d="M315.814 157.007C314.92 157.007 314.7 156.555 314.691 156.533L312.805 150.061L312.955 150.001L314.836 156.458C314.836 156.458 315.037 156.824 315.818 156.824V157.002L315.814 157.007Z" fill="#4F4FC1"/>
<path d="M338.981 144.008C338.84 144.008 338.709 143.97 338.593 143.89C338.003 143.497 338.022 142.22 338.63 140.993C339.028 140.19 339.598 139.593 340.118 139.431C340.366 139.356 340.59 139.383 340.773 139.506C341.362 139.899 341.348 141.176 340.735 142.403C340.338 143.206 339.767 143.804 339.247 143.965C339.154 143.992 339.065 144.008 338.981 144.008ZM340.384 139.749C340.328 139.749 340.263 139.759 340.197 139.781C339.762 139.916 339.252 140.459 338.901 141.17C338.396 142.188 338.326 143.292 338.752 143.577C338.864 143.653 339.004 143.664 339.168 143.615C339.603 143.48 340.113 142.937 340.464 142.226C340.969 141.208 341.039 140.104 340.614 139.819C340.548 139.776 340.469 139.749 340.384 139.749Z" fill="#E08B65"/>
<path d="M320.773 104.655C319.191 104.601 317.989 104.413 317.077 103.18L314.26 99.3618L313.442 98.2525L308.618 91.7206L311.154 99.3618L312.674 103.944L313.156 105.398C313.484 106.384 313.053 106.841 312.749 107.994C312.628 108.462 311.795 111.332 313.961 111.354C316.66 111.376 320.071 107.768 320.824 104.65C320.81 104.65 320.796 104.661 320.782 104.661L320.773 104.655Z" fill="#FDAD9B"/>
<path d="M315.042 96.9117C315.042 96.9117 320.352 91.0367 317.287 86.0772C314.223 81.1177 313.456 94.0361 313.456 94.0361L314.312 97.0247L315.037 96.9117H315.042Z" fill="#4F4FC1"/>
<path d="M314.232 99.2325C314.242 99.2756 314.251 99.3187 314.261 99.3618C314.752 101.941 312.689 103.95 312.689 103.95L312.67 103.939L311.149 99.3564C311.795 98.7963 312.749 98.1232 313.442 98.2471C313.802 98.3117 314.097 98.5971 314.237 99.2271L314.232 99.2325Z" fill="#4F4FC1"/>
<path d="M302.986 96.0392C301.788 91.4458 303.472 86.7879 306.752 85.6355C310.027 84.4831 313.657 87.2671 314.855 91.8605C316.052 96.4538 314.368 101.112 311.089 102.264C307.809 103.417 304.183 100.632 302.986 96.0392Z" fill="#FDAD9B"/>
<path d="M313.732 91.1928C313.732 91.1928 312.038 92.6091 310.621 91.4136C309.203 90.2182 308.202 89.0819 305.025 90.9236C301.849 92.7652 298.372 91.936 297.731 89.8681C297.091 87.7949 298.602 86.2118 300.595 86.3141C302.588 86.4164 300.174 85.1563 301.558 82.9808C302.948 80.8053 306.466 83.0454 308.211 81.9685C309.956 80.8915 316.169 79.9491 317.287 86.0825L313.727 91.2036L313.732 91.1928Z" fill="#4F4FC1"/>
<path d="M315.06 92.4206C314.653 93.1476 313.872 93.3899 313.311 92.9645C312.754 92.5391 312.632 91.6075 313.039 90.8859C313.446 90.159 314.228 89.9167 314.784 90.3421C315.341 90.7675 315.463 91.6991 315.056 92.4206H315.06Z" fill="#FDAD9B"/>
<path d="M301.24 89.1457C301.124 89.1457 301.007 89.1295 300.899 89.0972C300.183 88.8873 299.982 88.4567 300.033 88.1229C300.094 87.7408 300.497 87.3747 301.133 87.4501C302.078 87.5631 302.597 87.1971 302.602 87.1917L302.728 87.4178C302.705 87.434 302.143 87.8377 301.11 87.7192C300.637 87.6654 300.305 87.913 300.263 88.1714C300.221 88.4459 300.487 88.7043 300.955 88.8389C302.181 89.1941 304.291 87.0087 304.31 86.9872L304.464 87.1864C304.38 87.2725 302.569 89.1457 301.236 89.1457H301.24Z" fill="#F2F2F2"/>
<path d="M306.723 84.0138C305.437 84.0138 304.276 83.3732 304.178 83.2387L304.347 83.0557C304.464 83.1687 306.354 84.2237 307.968 83.4917C308.51 83.2494 308.983 82.9588 309.441 82.6789C310.382 82.1083 311.191 81.6131 312.117 81.823L312.075 82.0868C311.229 81.8984 310.452 82.372 309.549 82.9157C309.086 83.1956 308.604 83.4916 308.052 83.7393C307.617 83.933 307.163 84.0084 306.723 84.0084V84.0138Z" fill="#F2F2F2"/>
<path d="M315.678 85.7589C315.323 85.7589 314.7 85.1183 314.546 84.7631C314.424 84.4778 314.546 84.3486 314.607 84.3055C315.075 83.9664 315.744 85.0214 315.875 85.2367L315.893 85.2798C315.968 85.6081 315.851 85.7104 315.772 85.7481C315.744 85.7589 315.711 85.7642 315.678 85.7642V85.7589ZM314.808 84.5047C314.78 84.5047 314.752 84.5101 314.728 84.5262C314.719 84.5477 314.738 84.6877 314.962 84.9568C315.28 85.3336 315.608 85.5112 315.683 85.4897C315.683 85.4897 315.683 85.452 315.669 85.3659C315.435 84.9837 315.032 84.5047 314.803 84.5047H314.808Z" fill="#F2F2F2"/>
<path d="M307.729 94.1759C307.692 94.1705 307.655 94.1436 307.636 94.1005C307.603 94.0305 307.622 93.939 307.683 93.9014C307.72 93.8798 308.501 93.25 309.343 94.079C309.395 94.1328 309.404 94.2243 309.362 94.2835C309.32 94.3481 309.245 94.3427 309.184 94.3051C308.562 93.9444 307.837 94.1382 307.804 94.1544C307.781 94.1705 307.753 94.1759 307.725 94.1705L307.729 94.1759Z" fill="#060633"/>
<path d="M308.89 95.6244C308.937 95.9689 308.801 96.2811 308.586 96.3188C308.371 96.3565 308.16 96.1143 308.109 95.7698C308.062 95.4253 308.197 95.1131 308.413 95.0754C308.628 95.0377 308.838 95.2799 308.89 95.6244Z" fill="#060633"/>
<path d="M303.341 96.0066C303.313 96.0173 303.28 96.0066 303.252 95.9743C303.205 95.9204 303.196 95.8289 303.229 95.7697C303.248 95.7374 303.612 94.8547 304.455 95.3122C304.506 95.3391 304.544 95.4198 304.529 95.4952C304.515 95.5706 304.464 95.5921 304.413 95.5813C303.865 95.4791 303.407 95.9312 303.393 95.9635C303.379 95.9904 303.36 96.0012 303.341 96.0066Z" fill="#060633"/>
<path d="M304.913 96.8253C305.067 97.1214 305.044 97.4712 304.862 97.6004C304.674 97.7296 304.398 97.6004 304.244 97.299C304.09 97.0029 304.113 96.6531 304.295 96.5239C304.483 96.3893 304.759 96.5239 304.913 96.8253Z" fill="#060633"/>
<path d="M308.511 100.481C308.066 100.481 307.757 100.395 307.748 100.389C307.701 100.373 307.673 100.319 307.682 100.266C307.696 100.212 307.743 100.179 307.79 100.19C307.879 100.217 309.923 100.788 310.929 98.7423C310.953 98.6938 311.009 98.6777 311.051 98.7046C311.093 98.7315 311.107 98.7961 311.084 98.8446C310.405 100.223 309.264 100.481 308.511 100.481Z" fill="#020202"/>
<path d="M311.266 99.2052C311.229 99.2052 311.196 99.1783 311.182 99.1352C311.14 98.9953 311.023 98.78 310.681 98.5539L310.658 98.5378C310.616 98.5055 310.607 98.4409 310.635 98.3978C310.663 98.3493 310.714 98.3386 310.756 98.3709C311.084 98.5862 311.276 98.8176 311.351 99.0706C311.365 99.1245 311.341 99.1837 311.294 99.1998C311.285 99.1998 311.276 99.1998 311.266 99.1998V99.2052Z" fill="#020202"/>
<path d="M301.292 120.737L299.87 125.715L300.239 125.854L301.661 120.877L301.292 120.737Z" fill="#4F4FC1"/>
<path d="M304.207 101.747C304.123 101.747 304.038 101.742 303.95 101.726C303.019 101.58 302.05 100.676 301.358 99.2971C300.235 97.0623 300.188 94.2622 301.245 93.0506C301.638 92.6036 302.139 92.4098 302.696 92.4959C303.627 92.6413 304.595 93.546 305.288 94.9191C306.41 97.1539 306.457 99.954 305.4 101.166C305.068 101.543 304.661 101.736 304.207 101.736V101.747ZM302.448 92.7867C302.064 92.7867 301.718 92.9537 301.437 93.2714C300.455 94.3914 300.525 97.03 301.592 99.1517C302.242 100.444 303.14 101.3 303.992 101.43C304.464 101.505 304.89 101.338 305.222 100.961C306.205 99.841 306.134 97.2024 305.068 95.0807C304.417 93.7883 303.519 92.9321 302.668 92.8029C302.593 92.7921 302.523 92.7867 302.452 92.7867H302.448Z" fill="#F2F2F2"/>
<path d="M311.603 91.6452C312.511 93.8692 312.258 96.5724 311.042 97.6871C309.825 98.8018 308.099 97.9025 307.192 95.6785C306.284 93.4546 306.532 90.7513 307.753 89.6367C308.969 88.522 310.696 89.4213 311.603 91.6452Z" fill="#F2F2F2"/>
<path d="M305.381 95.1075C306.293 97.3423 306.171 100.051 305.105 101.16C304.043 102.269 302.443 101.359 301.53 99.1247C300.618 96.89 300.744 94.1813 301.806 93.072C302.868 91.9627 304.468 92.8728 305.381 95.1075Z" fill="#F2F2F2"/>
<path d="M309.68 98.2794C309.507 98.2794 309.329 98.2524 309.152 98.204C308.174 97.9401 307.29 96.9924 306.714 95.6084C305.732 93.2391 306.031 90.3204 307.374 89.1142C307.917 88.6296 308.557 88.468 309.226 88.6511C310.204 88.915 311.089 89.8627 311.664 91.2466C312.646 93.6214 312.347 96.5346 311.004 97.7409C310.607 98.0963 310.158 98.2794 309.68 98.2794ZM308.703 88.8827C308.281 88.8827 307.888 89.0442 307.538 89.3565C306.284 90.482 306.022 93.2337 306.953 95.4846C307.481 96.7662 308.328 97.6762 309.212 97.9132C309.802 98.0747 310.368 97.9293 310.845 97.5039C312.099 96.3785 312.361 93.6268 311.43 91.3759C310.901 90.0943 310.055 89.1842 309.17 88.9473C309.011 88.9042 308.857 88.8827 308.703 88.8827Z" fill="#F2F2F2"/>
<path d="M305.227 96.0547C305.175 96.0547 305.124 96.0332 305.077 95.9955C304.969 95.8986 304.951 95.7263 305.03 95.6025C305.058 95.5649 305.69 94.6336 307.042 94.5906H307.047C307.178 94.5906 307.29 94.7144 307.29 94.8651C307.29 95.0212 307.187 95.1504 307.051 95.1558C305.942 95.1881 305.437 95.9147 305.414 95.947C305.367 96.017 305.292 96.0547 305.222 96.0547H305.227Z" fill="#F2F2F2"/>
<path d="M238.629 408.79C238.629 408.79 238.741 412.592 240.987 413.642C243.233 414.692 249.717 415.591 247.317 418.063C245.937 419.479 239.387 418.645 237.534 418.661C235.686 418.682 233.96 419.625 232.571 418.214C231.045 416.663 232.496 408.849 232.496 408.849C232.496 408.849 234.1 409.786 235.532 409.733C237.6 409.652 238.624 408.785 238.624 408.785L238.629 408.79Z" fill="#4F4FC1"/>
<path d="M258.363 406.868C258.363 406.868 258.513 410.67 260.768 411.693C263.023 412.716 269.516 413.534 267.14 416.033C265.774 417.465 259.214 416.711 257.366 416.755C255.518 416.798 253.797 417.761 252.403 416.372C250.863 414.843 252.239 407.008 252.239 407.008C252.239 407.008 253.848 407.929 255.285 407.853C257.352 407.746 258.368 406.868 258.368 406.868H258.363Z" fill="#4F4FC1"/>
<path d="M256.819 409.991C260.641 409.539 263.481 405.71 263.261 401.294C262.021 376.346 260.131 363.767 252.917 353.282C248.281 346.546 241.478 340.122 233.282 336.551C226.213 333.471 220.243 332.13 212.481 332.276C199.822 332.513 194.02 335.178 194.02 335.178C186.025 358.635 201.043 360.369 212.042 360.046C212.407 360.035 212.772 360.03 213.136 360.024C219.803 359.938 231.728 360.864 236.688 368.069C240.613 373.777 243.616 382.006 246.063 403.68C246.531 407.837 249.787 410.82 253.413 410.389L256.814 409.991H256.819Z" fill="#F8F7F4"/>
<path d="M238.643 412.85C242.466 412.398 245.305 408.569 245.086 404.154C243.846 379.205 241.956 366.626 234.742 356.142C230.105 349.405 223.481 344.591 215.05 341.829C209.034 339.858 202.044 338.932 194.283 339.072C181.623 339.309 175.845 338.038 175.845 338.038C167.522 367.902 204.44 358.543 214.957 370.062C219.537 375.081 225.446 384.865 227.892 406.539C228.36 410.696 231.616 413.674 235.242 413.249L238.643 412.85Z" fill="#F8F7F4"/>
<path d="M214.788 296.224C215.771 297.721 225.389 310.623 225.371 324.732L216.304 322.497L210.138 304.457L214.783 296.224H214.788Z" fill="#FDAD9B"/>
<path d="M179.597 295.852C179.597 295.852 183.606 284.059 196.884 285.055C210.166 286.052 219.438 292.212 220.945 334.925C220.945 334.925 202.615 333.482 181.506 347.413C177.95 349.761 172.444 349.201 172.266 344.489C171.91 335.103 173.763 317.22 179.597 295.847V295.852Z" fill="#9A62A4"/>
<path d="M167.906 297.565L179.541 301.975C179.541 301.975 203.686 305.551 210.142 304.447C216.599 303.343 218.498 297.5 218.498 297.5C218.498 297.5 211.859 288.41 200.28 285.648C199.19 285.384 198.063 285.185 196.888 285.05C194.919 284.824 193.024 284.592 191.087 284.797C172.158 286.827 167.906 297.565 167.906 297.565Z" fill="#9A62A4"/>
<path d="M167.906 297.565C167.265 299.159 169.983 300.699 173.323 302.174C176.664 303.65 179.649 303.978 179.999 302.906C180.346 301.835 177.922 299.772 174.582 298.297C171.241 296.821 168.327 296.525 167.906 297.565Z" fill="#4F4FC1"/>
<path d="M200.739 338.921C203.017 338.56 204.809 337.607 206.17 336.051C208.739 333.111 208.8 329.061 208.07 326.487L205.108 325.082C204.87 324.236 199.962 328.286 199.972 328.28C199.948 328.291 197.548 329.519 188.271 325.782C181.815 323.181 178.175 318.62 177.141 311.84C176.364 306.73 177.829 304.129 178.151 302.804C178.194 302.627 177.375 300.392 173.927 299.029C170.203 297.559 168.837 298.647 168.837 298.647C168.257 301.043 167.064 306.531 168.149 313.66C169.276 321.065 173.164 330.919 185.3 335.803C191.915 338.469 196.987 339.503 200.739 338.916V338.921Z" fill="#FDAD9B"/>
<path d="M202.769 340.148L227.172 339.701C227.682 339.691 228.131 339.308 228.285 338.754L233.118 321.226C233.361 320.343 232.776 319.449 231.967 319.465L208.5 319.89C207.429 319.912 206.493 320.709 206.17 321.877L201.618 338.382C201.375 339.265 201.96 340.159 202.769 340.148Z" fill="#4F4FC1"/>
<path d="M204.303 340.122L228.706 339.675C229.216 339.664 229.665 339.282 229.82 338.727L234.652 321.199C234.896 320.316 234.311 319.422 233.501 319.438L210.035 319.864C208.963 319.885 208.028 320.682 207.705 321.851L203.153 338.355C202.909 339.239 203.494 340.132 204.303 340.122Z" fill="#4F4FC1"/>
<path d="M221.254 329.169C221.244 328.506 220.575 328.248 220 328.259C219.42 328.269 218.484 329.013 218.503 329.939C218.521 330.94 219.204 331.059 219.785 331.048C220.365 331.037 221.268 330.009 221.254 329.169Z" fill="#FFBA41"/>
<path d="M195.288 337.822L228.683 337.214L228.716 339.675L194.624 340.294C194.226 340.299 193.899 339.939 193.894 339.481V339.47C193.88 338.571 194.502 337.833 195.284 337.817L195.288 337.822Z" fill="#4F4FC1"/>
<path d="M205.88 328.759L205.726 328.716C205.773 328.501 206.868 323.45 207.63 321.813C208.402 320.149 209.375 319.81 209.413 319.793L209.455 319.966C209.455 319.966 208.505 320.305 207.766 321.899C207.013 323.52 205.885 328.711 205.876 328.759H205.88Z" fill="#4F4FC1"/>
<path d="M202.4 337.784V337.601C203.195 337.585 203.391 337.203 203.391 337.198L205.197 330.639L205.347 330.693L203.537 337.268C203.522 337.3 203.303 337.768 202.4 337.784Z" fill="#4F4FC1"/>
<g opacity="0.3">
<path d="M177.089 327.376C177.043 327.376 176.996 327.376 176.949 327.365C176.411 327.284 175.765 326.778 175.269 326.035C174.512 324.898 174.343 323.622 174.886 323.132C175.054 322.981 175.279 322.917 175.536 322.954C176.074 323.035 176.72 323.541 177.216 324.285C177.974 325.421 178.142 326.697 177.599 327.187C177.464 327.311 177.286 327.376 177.094 327.376H177.089ZM175.391 323.31C175.265 323.31 175.162 323.348 175.082 323.423C174.689 323.778 174.891 324.872 175.522 325.814C175.962 326.471 176.537 326.939 176.991 327.004C177.164 327.031 177.305 326.993 177.408 326.902C177.801 326.546 177.599 325.453 176.968 324.511C176.528 323.854 175.953 323.385 175.499 323.321C175.461 323.315 175.429 323.315 175.396 323.315L175.391 323.31Z" fill="#E08B65"/>
</g>
<path d="M194.512 282.961L196.556 278.922L197.15 277.748L200.645 270.839L199.424 278.314L198.69 282.799L198.456 284.221C198.297 285.185 198.764 285.519 199.214 286.515C199.396 286.919 200.58 289.38 198.587 289.816C196.102 290.365 192.233 287.506 191.087 284.808C191.101 284.808 193.852 284.269 194.512 282.966V282.961Z" fill="#FDAD9B"/>
<path d="M206.357 269.412C206.357 269.412 206.404 271.324 205.543 273.472C204.683 275.621 203.798 269.541 203.798 269.541L206.357 269.412Z" fill="#020054"/>
<path d="M205.651 274.189C206.03 269.692 203.705 265.751 200.467 265.39C197.225 265.029 194.292 268.384 193.913 272.886C193.534 277.382 195.859 281.324 199.097 281.684C202.339 282.045 205.272 278.69 205.651 274.189Z" fill="#FDAD9B"/>
<path d="M194.226 270.565L197.076 270.968C197.703 271.06 198.339 270.828 198.788 270.322C199.565 269.45 200.355 269.1 202.928 269.902C206.184 270.915 208.804 269.24 209.558 267.355C210.325 265.433 208.917 263.618 207.073 264.14C205.23 264.663 206.414 262.493 204.875 261.819C202.002 260.565 200.921 263.047 198.512 262.315C195.354 261.356 189.09 262.627 190.502 269.794L194.226 270.559V270.565Z" fill="#4F4FC1"/>
<path d="M200.149 273.284C200.182 273.268 200.21 273.241 200.224 273.198C200.243 273.128 200.21 273.047 200.149 273.025C200.112 273.009 199.279 272.6 198.629 273.548C198.587 273.607 198.596 273.693 198.643 273.741C198.694 273.79 198.76 273.768 198.811 273.725C199.331 273.257 200.042 273.278 200.075 273.289C200.098 273.3 200.126 273.3 200.149 273.289V273.284Z" fill="#060633"/>
<path d="M199.303 274.867C199.312 275.195 199.49 275.454 199.696 275.443C199.901 275.432 200.061 275.158 200.051 274.835C200.042 274.512 199.864 274.248 199.658 274.259C199.452 274.27 199.293 274.544 199.303 274.867Z" fill="#060633"/>
<path d="M204.538 274.027C204.566 274.027 204.594 274.011 204.612 273.978C204.645 273.919 204.64 273.833 204.603 273.785C204.58 273.758 204.098 273.026 203.387 273.623C203.34 273.661 203.321 273.741 203.345 273.811C203.368 273.876 203.419 273.887 203.471 273.865C203.967 273.65 204.463 273.973 204.481 273.994C204.495 274.016 204.514 274.027 204.538 274.027Z" fill="#060633"/>
<path d="M203.204 275.12C203.106 275.427 203.186 275.745 203.377 275.825C203.574 275.906 203.808 275.723 203.906 275.416C204.004 275.109 203.925 274.792 203.733 274.711C203.536 274.63 203.303 274.813 203.204 275.12Z" fill="#060633"/>
<path d="M190.502 269.794C190.502 269.794 191.466 275.077 194.119 276.149C194.119 276.149 192.645 271.927 197.731 270.947C197.731 270.947 193.623 269.041 190.502 269.794Z" fill="#4F4FC1"/>
<path d="M193.815 273.451C194.311 274.032 195.078 274.092 195.532 273.58C195.985 273.068 195.948 272.185 195.447 271.604C194.951 271.022 194.18 270.963 193.73 271.475C193.281 271.986 193.314 272.869 193.815 273.451Z" fill="#FDAD9B"/>
<path d="M197.731 270.947C197.731 270.947 196.556 274.851 197.113 275.793C197.67 276.736 202.278 278.308 204.655 277.915C204.177 280.494 202.147 282.347 199.859 282.191C199.101 282.137 198.348 281.938 197.628 281.588C196.163 280.877 194.825 279.751 194.521 277.958C194.428 277.409 195.597 274.506 195.597 274.506C195.597 274.506 196.168 272.772 195.448 271.599C195.448 271.599 196.711 270.796 197.731 270.947Z" fill="#4F4FC1"/>
<path d="M203.214 279.057C203.214 279.057 201.309 279.137 199.396 278.4C199.396 278.4 199.265 280.564 201.328 280.672C202.526 280.737 203.214 279.057 203.214 279.057Z" fill="#F2F2F2"/>
<path d="M206.83 263.741C205.918 263.532 206.016 262.627 206.016 262.616L206.175 262.643C206.175 262.676 206.1 263.392 206.863 263.564L206.83 263.747V263.741Z" fill="#4F4FC1"/>
<path d="M204.07 269.089V268.998C204.102 268.998 207.836 268.728 208.397 266.698C208.556 266.122 208.547 265.713 208.374 265.438C208.098 265.002 207.433 265.002 206.844 265.007C206.755 265.007 206.666 265.007 206.582 265.007V264.916C206.666 264.916 206.755 264.916 206.844 264.916C207.452 264.916 208.135 264.916 208.439 265.384C208.626 265.681 208.64 266.122 208.472 266.725C208.233 267.592 207.391 268.276 206.044 268.707C205.033 269.025 204.074 269.089 204.065 269.089H204.07Z" fill="#F2F2F2"/>
<path d="M199.555 263.268C198.816 263.268 197.955 263.117 196.996 262.702L197.024 262.616C198.75 263.364 200.131 263.23 200.982 262.988C201.908 262.724 202.428 262.272 202.432 262.266L202.479 262.342C202.479 262.342 201.384 263.273 199.551 263.273L199.555 263.268Z" fill="#F2F2F2"/>
<path d="M244.262 390.126H244.117C244.117 390.029 244.201 380.541 241.24 370.304C239.5 364.3 237.072 359.217 234.012 355.2C230.194 350.181 225.38 346.815 219.705 345.2L219.738 345.038C225.441 346.659 230.283 350.046 234.124 355.092C237.193 359.125 239.635 364.23 241.38 370.256C244.351 380.514 244.267 390.029 244.262 390.126Z" fill="#020202"/>
<path d="M128.359 172.99L102.927 143.717C97.6687 137.665 90.6745 134.331 83.2358 134.331H51.4226V133.728H83.2358C90.8148 133.728 97.94 137.126 103.297 143.292L128.729 172.564L128.359 172.99Z" fill="#020054"/>
<path d="M49.1302 134.175C49.1302 132.926 50.356 131.989 51.4227 131.768C52.8636 131.467 53.3876 132.781 53.3876 134.03C53.3876 135.279 52.5081 136.631 51.4227 136.631C50.3373 136.631 49.1302 135.43 49.1302 134.181V134.175Z" fill="#020054"/>
<path d="M126.417 172.774C126.417 171.525 127.643 170.588 128.71 170.367C130.151 170.066 130.675 171.38 130.675 172.629C130.675 173.878 129.795 175.23 128.71 175.23C127.625 175.23 126.417 174.029 126.417 172.78V172.774Z" fill="#020054"/>
<path d="M134.535 139.081L134.072 138.806L148.94 105.603C150.68 101.72 153.248 98.5324 156.369 96.3785C160.771 93.3468 165.805 91.7474 170.937 91.7474H202.751V92.3505H170.937C165.903 92.3505 160.958 93.9229 156.64 96.8954C153.604 98.9848 151.101 102.092 149.407 105.877L134.539 139.081H134.535Z" fill="#020054"/>
<path d="M205.033 92.1944C205.033 90.9451 203.808 90.0081 202.741 89.7873C201.3 89.4858 200.776 90.7997 200.776 92.049C200.776 93.2983 201.656 94.6499 202.741 94.6499C203.826 94.6499 205.033 93.4491 205.033 92.1998V92.1944Z" fill="#020054"/>
<path d="M136.429 138.946C136.429 137.697 135.204 136.76 134.137 136.539C132.696 136.238 132.172 137.552 132.172 138.801C132.172 140.05 133.052 141.402 134.137 141.402C135.222 141.402 136.429 140.201 136.429 138.952V138.946Z" fill="#020054"/>
<path d="M19.4176 78.5328H73.8556C76.1246 78.5328 77.9679 80.6545 77.9679 83.2662V118.322C77.9679 120.934 76.1246 123.055 73.8556 123.055H19.4176C17.1486 123.055 15.3053 120.934 15.3053 118.322V83.2662C15.3053 80.6545 17.1486 78.5328 19.4176 78.5328Z" fill="#F2F2F2"/>
<path d="M49.3688 108.193L51.4414 102.576C51.7267 101.801 52.5642 101.532 53.1583 102.027L55.928 104.337C56.5595 104.865 57.4531 104.52 57.6824 103.664L59.2777 97.7515C59.4695 97.0407 60.1338 96.6584 60.742 96.9007L62.2672 97.5146C62.7397 97.7031 63.259 97.5146 63.5584 97.0569L63.8017 96.6799C64.4567 95.6622 65.8555 96.1953 65.8555 97.4607V108.699C65.8555 109.426 65.3456 110.013 64.7187 110.013H50.4168C49.6027 110.013 49.0507 109.054 49.3688 108.188V108.193Z" fill="#F2F2F2"/>
<path d="M66.7584 113.723H66.721L24.0819 112.915C22.9638 112.894 22.0609 111.908 21.9813 110.627L21.1158 96.3728C21.0737 95.6943 21.2702 95.0428 21.6726 94.5366C22.0702 94.0358 22.6176 93.7504 23.2118 93.7396L66.7163 92.7919C67.2964 92.7757 67.8438 93.0288 68.2555 93.4973C68.6672 93.9658 68.8964 94.5904 68.8964 95.2528V111.262C68.8964 111.93 68.6718 112.549 68.2555 113.018C67.8531 113.475 67.3198 113.723 66.7584 113.723ZM66.7584 93.2711H66.7256L23.2211 94.2189C22.7439 94.2296 22.3041 94.4558 21.9813 94.8651C21.6585 95.2689 21.4995 95.7966 21.5322 96.3459L22.3977 110.6C22.4585 111.634 23.1884 112.431 24.0913 112.447L66.7303 113.249C67.1982 113.265 67.6379 113.055 67.9701 112.678C68.3023 112.301 68.4847 111.801 68.4847 111.262V95.2528C68.4847 94.7143 68.3023 94.2135 67.9654 93.8365C67.6426 93.4704 67.2122 93.2711 66.7584 93.2711Z" fill="#020054"/>
<path d="M42.281 104.66H26.8703C26.5335 104.66 26.0095 104.251 25.9627 103.868C25.8692 103.077 26.5288 102.851 26.8657 102.851L42.2763 103.244C42.6179 103.244 42.8939 103.562 42.8939 103.955C42.8939 104.347 42.6179 104.665 42.2763 104.665L42.281 104.66Z" fill="#020054"/>
<path d="M38.2762 101.326H26.6457C26.3884 101.326 25.9954 100.998 25.9627 100.691C25.8925 100.056 26.3884 99.873 26.6457 99.873L38.2762 100.191C38.5335 100.191 38.7394 100.449 38.7394 100.761C38.7394 101.073 38.5289 101.332 38.2762 101.332V101.326Z" fill="#020054"/>
<path d="M38.2762 108.015H26.6457C26.3884 108.015 25.9954 107.686 25.9627 107.379C25.8925 106.744 26.3884 106.561 26.6457 106.561L38.2762 106.879C38.5335 106.879 38.7394 107.137 38.7394 107.449C38.7394 107.762 38.5289 108.02 38.2762 108.02V108.015Z" fill="#020054"/>
<path d="M38.1266 85.4085H22.7159C22.3744 85.4085 21.8551 84.9994 21.8083 84.6172C21.7147 83.8259 22.3744 83.5945 22.7112 83.5945L38.1219 83.9874C38.4634 83.9874 38.7395 84.305 38.7395 84.6979C38.7395 85.0909 38.4634 85.4085 38.1219 85.4085H38.1266Z" fill="#020054"/>
<path d="M34.1266 88.7635H22.4961C22.2387 88.7635 21.8458 88.4352 21.813 88.1284C21.7428 87.4878 22.2387 87.3102 22.4961 87.3102L34.1266 87.6278C34.3839 87.6278 34.5897 87.8861 34.5897 88.1983C34.5897 88.5105 34.3792 88.7689 34.1266 88.7689V88.7635Z" fill="#020054"/>
<path d="M468.667 293.871H414.224C411.953 293.871 410.112 295.99 410.112 298.604V333.665C410.112 336.279 411.953 338.399 414.224 338.399H468.667C470.938 338.399 472.779 336.279 472.779 333.665V298.604C472.779 295.99 470.938 293.871 468.667 293.871Z" fill="#F2F2F2"/>
<path d="M444.175 323.525L446.248 317.914C446.533 317.139 447.37 316.87 447.965 317.365L450.734 319.675C451.366 320.203 452.259 319.858 452.493 319.002L454.089 313.089C454.28 312.378 454.945 311.996 455.553 312.238L457.078 312.852C457.551 313.041 458.075 312.852 458.369 312.395L458.613 312.018C459.268 311 460.666 311.533 460.666 312.799V324.037C460.666 324.764 460.156 325.351 459.525 325.351H445.223C444.404 325.351 443.857 324.392 444.175 323.525Z" fill="#F2F2F2"/>
<path d="M461.565 329.056C461.565 329.056 461.541 329.056 461.527 329.056L418.888 328.248C417.77 328.226 416.867 327.241 416.788 325.959L415.922 311.705C415.88 311.027 416.076 310.375 416.479 309.875C416.876 309.374 417.424 309.088 418.018 309.078L461.523 308.13C462.103 308.114 462.65 308.367 463.062 308.835C463.473 309.304 463.703 309.928 463.703 310.591V326.6C463.703 327.268 463.473 327.887 463.062 328.356C462.659 328.813 462.126 329.061 461.565 329.061V329.056ZM461.565 308.604H461.532L418.027 309.551C417.55 309.562 417.11 309.788 416.788 310.198C416.465 310.602 416.306 311.129 416.338 311.673L417.204 325.927C417.265 326.961 417.995 327.758 418.898 327.774L461.537 328.582C462.004 328.593 462.444 328.388 462.772 328.011C463.104 327.634 463.286 327.133 463.286 326.595V310.585C463.286 310.047 463.104 309.546 462.767 309.169C462.444 308.803 462.014 308.604 461.56 308.604H461.565Z" fill="#020054"/>
<path d="M437.087 319.992H421.677C421.335 319.992 420.816 319.583 420.769 319.201C420.675 318.409 421.335 318.178 421.672 318.178L437.083 318.571C437.424 318.571 437.7 318.888 437.7 319.281C437.7 319.669 437.424 319.992 437.083 319.992H437.087Z" fill="#020054"/>
<path d="M433.087 316.664H421.457C421.199 316.664 420.806 316.336 420.774 316.029C420.703 315.394 421.199 315.211 421.457 315.211L433.087 315.529C433.344 315.529 433.55 315.787 433.55 316.099C433.55 316.411 433.34 316.67 433.087 316.67V316.664Z" fill="#020054"/>
<path d="M433.087 323.352H421.457C421.199 323.352 420.806 323.024 420.774 322.717C420.703 322.082 421.199 321.899 421.457 321.899L433.087 322.217C433.344 322.217 433.55 322.475 433.55 322.787C433.55 323.1 433.34 323.358 433.087 323.358V323.352Z" fill="#020054"/>
<path d="M432.937 300.741H417.526C417.19 300.741 416.666 300.332 416.619 299.95C416.525 299.159 417.185 298.927 417.522 298.927L432.932 299.32C433.269 299.32 433.55 299.638 433.55 300.031C433.55 300.418 433.274 300.741 432.932 300.741H432.937Z" fill="#020054"/>
<path d="M428.933 304.101H417.302C417.045 304.101 416.652 303.773 416.619 303.466C416.549 302.831 417.045 302.648 417.302 302.648L428.933 302.966C429.19 302.966 429.396 303.224 429.396 303.536C429.396 303.848 429.185 304.107 428.933 304.107V304.101Z" fill="#020054"/>
<path d="M167.906 62.1143H196.921C198.133 62.1143 199.116 63.2451 199.116 64.6398V83.3255C199.116 84.7202 198.133 85.851 196.921 85.851H167.906C166.694 85.851 165.712 84.7202 165.712 83.3255V64.6398C165.712 63.2451 166.694 62.1143 167.906 62.1143Z" fill="#F2F2F2"/>
<path d="M192.36 74.9466H171.611C171.153 74.9466 170.451 74.3973 170.39 73.8804C170.264 72.8141 171.153 72.5072 171.606 72.5072L192.355 73.0403C192.814 73.0403 193.188 73.4711 193.188 73.9934C193.188 74.5212 192.814 74.952 192.355 74.952L192.36 74.9466Z" fill="#020054"/>
<path d="M186.97 70.4547H171.307C170.961 70.4547 170.432 70.0133 170.385 69.5988C170.292 68.743 170.961 68.4954 171.307 68.4954L186.97 68.9206C187.317 68.9206 187.597 69.2651 187.597 69.6903C187.597 70.1102 187.317 70.4601 186.97 70.4601V70.4547Z" fill="#020054"/>
<path d="M186.97 79.4637H171.307C170.961 79.4637 170.432 79.0223 170.385 78.6079C170.292 77.752 170.961 77.5044 171.307 77.5044L186.97 77.9296C187.317 77.9296 187.597 78.2741 187.597 78.6994C187.597 79.1192 187.317 79.4691 186.97 79.4691V79.4637Z" fill="#020054"/>
<path d="M461.387 138.941H490.403C491.614 138.941 492.597 140.072 492.597 141.466V160.152C492.597 161.547 491.614 162.678 490.403 162.678H461.387C460.175 162.678 459.193 161.547 459.193 160.152V141.466C459.193 140.072 460.175 138.941 461.387 138.941Z" fill="#F2F2F2"/>
<path d="M485.836 151.768H465.087C464.629 151.768 463.927 151.218 463.866 150.702C463.74 149.635 464.629 149.328 465.083 149.328L485.832 149.861C486.29 149.861 486.664 150.292 486.664 150.82C486.664 151.348 486.29 151.773 485.832 151.773L485.836 151.768Z" fill="#020054"/>
<path d="M480.447 147.281H464.783C464.437 147.281 463.908 146.84 463.862 146.425C463.768 145.57 464.437 145.322 464.783 145.322L480.447 145.747C480.793 145.747 481.074 146.092 481.074 146.517C481.074 146.937 480.793 147.287 480.447 147.287V147.281Z" fill="#020054"/>
<path d="M480.447 156.29H464.783C464.437 156.29 463.908 155.849 463.862 155.435C463.768 154.573 464.437 154.331 464.783 154.331L480.447 154.756C480.793 154.756 481.074 155.101 481.074 155.526C481.074 155.946 480.793 156.296 480.447 156.296V156.29Z" fill="#020054"/>
<path d="M13.7943 159.129H54.6883C56.3959 159.129 57.776 160.723 57.776 162.683V189.015C57.776 190.981 56.3912 192.575 54.6836 192.575H13.7943C12.0867 192.575 10.7065 190.981 10.7065 189.021V162.688C10.7065 160.723 12.0914 159.134 13.7943 159.134V159.129Z" fill="#F2F2F2"/>
<path d="M48.26 177.212H19.0153C18.3697 177.212 17.3825 176.442 17.2936 175.704C17.1205 174.196 18.3697 173.765 19.0106 173.765L48.2553 174.514C48.901 174.514 49.4249 175.122 49.4249 175.86C49.4249 176.603 48.8963 177.206 48.2553 177.206L48.26 177.212Z" fill="#020054"/>
<path d="M40.6627 170.89H18.5899C18.1034 170.89 17.3548 170.27 17.294 169.678C17.163 168.466 18.1034 168.122 18.5899 168.122L40.6673 168.725C41.1539 168.725 41.5515 169.21 41.5515 169.807C41.5515 170.405 41.1539 170.89 40.6673 170.89H40.6627Z" fill="#020054"/>
<path d="M40.6623 183.587H18.5896C18.103 183.587 17.3545 182.968 17.2936 182.376C17.1626 181.164 18.103 180.819 18.5896 180.819L40.667 181.422C41.1535 181.422 41.5512 181.907 41.5512 182.505C41.5512 183.103 41.1535 183.587 40.667 183.587H40.6623Z" fill="#020054"/>
<path d="M329.821 303.564C329.264 303.757 328.941 304.441 329.11 305.082L331.725 315.055C331.894 315.696 332.488 316.067 333.044 315.868C333.601 315.674 333.919 314.99 333.751 314.35L331.136 304.377C330.967 303.736 330.373 303.37 329.816 303.558L329.821 303.564Z" fill="#FDAD9B"/>
<path d="M332.418 302.664C331.861 302.858 331.543 303.542 331.711 304.183L334.635 315.335C334.804 315.976 335.398 316.347 335.954 316.154C336.511 315.96 336.834 315.276 336.661 314.635L333.737 303.483C333.568 302.842 332.974 302.471 332.418 302.664Z" fill="#FDAD9B"/>
<path d="M331.589 296.581L331.373 296.94C330.97 297.61 331.115 298.529 331.697 298.993L337.344 303.492C337.927 303.956 338.725 303.789 339.128 303.119L339.344 302.76C339.747 302.09 339.601 301.171 339.019 300.707L333.372 296.208C332.79 295.744 331.991 295.911 331.589 296.581Z" fill="#FDAD9B"/>
<path d="M335.019 301.76C334.462 301.953 334.144 302.637 334.312 303.278L336.656 312.217C336.825 312.858 337.419 313.224 337.976 313.03C338.532 312.836 338.851 312.152 338.682 311.512L336.338 302.573C336.17 301.932 335.576 301.56 335.019 301.754V301.76Z" fill="#FDAD9B"/>
<path d="M326.569 298.496C326.569 298.496 325.142 305.276 327.809 309.164C328.731 310.51 336.319 307.613 336.586 305.712C336.852 303.817 334.757 297.958 334.757 297.958L326.569 298.496Z" fill="#FDAD9B"/>
<path d="M327.239 304.452C326.682 304.646 326.364 305.33 326.532 305.97L328.871 314.893C329.04 315.534 329.634 315.9 330.191 315.706C330.747 315.513 331.066 314.829 330.897 314.188L328.558 305.265C328.39 304.624 327.795 304.258 327.239 304.452Z" fill="#FDAD9B"/>
<path d="M336.431 298.625C346.312 291.151 336.768 265.449 340.876 249.477C341.826 245.778 342.237 244.383 343.061 242.321C343.72 240.662 341.938 237.437 339.486 236.101C337.189 234.852 331.669 235.676 331.234 236.51C324.581 249.289 323.089 272.67 326.406 299.455C326.406 299.455 332.188 301.83 336.431 298.62V298.625Z" fill="#F2F2F2"/>
<path d="M352.188 392.969C352.188 392.969 352.104 396.825 349.84 397.913C347.575 399 341.007 399.98 343.463 402.457C344.871 403.879 351.505 402.958 353.377 402.958C355.248 402.958 357.007 403.895 358.401 402.457C359.931 400.869 358.401 392.969 358.401 392.969C358.401 392.969 356.787 393.939 355.332 393.895C353.236 393.831 352.193 392.969 352.193 392.969H352.188Z" fill="#4F4FC1"/>
<path d="M332.637 276.655C332.637 276.655 332.184 294.048 337.007 327.419C340.488 351.505 344.6 375.781 346.616 387.418C347.337 391.58 350.378 394.623 353.985 394.789L355.922 394.881C359.819 395.059 362.981 391.208 362.701 386.626L357.807 307.893L356.6 281.981L332.637 276.655Z" fill="#9A62A4"/>
<path d="M380.455 392.415C380.455 392.415 381.756 395.969 380.081 398.031C378.406 400.094 372.773 404.1 375.894 405.198C377.686 405.828 383.403 401.844 385.11 400.961C386.818 400.072 388.755 400.094 389.508 398.123C390.336 395.953 386.116 389.474 386.116 389.474C386.116 389.474 384.989 391.122 383.651 391.774C381.718 392.711 380.455 392.42 380.455 392.42V392.415Z" fill="#4F4FC1"/>
<path d="M352.666 278.271C352.666 278.271 353.451 295.648 360.633 328.447C365.817 352.125 371.641 375.932 374.481 387.342C375.496 391.424 378.743 394.17 382.35 393.998L384.287 393.906C388.184 393.718 391.061 389.577 390.453 385.038L379.973 307.031L376.928 281.318L352.666 278.271Z" fill="#9A62A4"/>
<path d="M380.432 295.718C380.385 297.818 369.363 298.647 355.725 298.162C342.088 297.672 331.192 295.502 331.238 293.402C331.285 291.302 342.256 290.069 355.894 290.559C369.531 291.049 380.479 293.618 380.432 295.718Z" fill="#4F4FC1"/>
<path d="M377.091 236.306C377.091 236.306 374.682 225.304 356.89 225.197C331.234 225.035 333.61 252.17 331.238 293.402C331.238 293.402 356.511 289.288 380.446 295.201C380.446 295.201 382.668 253.112 377.096 236.306H377.091Z" fill="#F2F2F2"/>
<path d="M383.66 234.728L372.039 242.127C372.039 242.127 346.598 244.787 339.842 243.505C333.086 242.224 331.234 236.516 331.234 236.516C331.234 236.516 338.429 227.948 350.654 225.66C351.805 225.444 352.993 225.283 354.228 225.191C356.301 225.035 358.378 225.067 360.408 225.331C375.903 227.34 383.655 234.723 383.655 234.723L383.66 234.728Z" fill="#F2F2F2"/>
<path d="M333.386 295.098C333.386 295.098 348.16 290.096 378.757 296.962L378.991 302.029L334.134 303.854L333.381 295.098H333.386Z" fill="#4F4FC1"/>
<path d="M343.43 293.526C343.43 293.526 349.971 293.337 352.497 299.509C352.497 299.509 351.084 293.348 353.835 293.445C354.972 293.483 352.698 292.6 352.698 292.6L343.43 293.526Z" fill="#4F4FC1"/>
<path d="M385.887 295.201C384.816 281.647 376.109 246.166 375.094 244.227C374.275 242.665 375.739 239.23 378.046 237.593C380.212 236.058 383.01 234.098 383.66 234.728C392.806 243.602 400.675 276.03 398.191 294L385.882 295.201H385.887Z" fill="#F2F2F2"/>
<path d="M349.391 204.492C349.391 204.492 348.923 206.56 349.391 209.15C349.859 211.74 352.151 205.369 352.151 205.369L349.391 204.492Z" fill="#020054"/>
<path d="M362.668 225.676C360.829 228.288 357.522 227.916 354.935 226.602C352.857 225.547 353.152 225.563 353.438 225.181C354.144 224.227 354.724 224.001 354.762 222.903L354.813 221.465V221.287L354.883 219.413L355 216.188L355.3 207.696L357.601 216.231L357.994 217.685L359.337 222.677C359.767 224.287 362.649 225.671 362.668 225.676Z" fill="#FDAD9B"/>
<path d="M358.355 219.026C358.355 219.026 357.166 221.072 354.818 221.465V221.287L354.888 219.413C356.16 219.273 358.355 219.02 358.355 219.02V219.026Z" fill="#4F4FC1"/>
<path d="M349.119 209.898C349.69 204.89 353.082 201.266 356.689 201.815C360.301 202.359 362.762 206.866 362.191 211.874C361.62 216.882 358.228 220.506 354.621 219.957C351.009 219.413 348.549 214.906 349.119 209.898Z" fill="#FDAD9B"/>
<path d="M354.34 210.56C354.303 210.549 354.266 210.517 354.251 210.469C354.223 210.388 354.251 210.302 354.322 210.27C354.364 210.248 355.253 209.704 356.057 210.684C356.109 210.743 356.109 210.84 356.057 210.899C356.006 210.959 355.931 210.942 355.87 210.899C355.253 210.436 354.462 210.533 354.429 210.549C354.401 210.56 354.373 210.566 354.345 210.555L354.34 210.56Z" fill="#060633"/>
<path d="M350.79 210.523C350.757 210.523 350.729 210.501 350.71 210.458C350.677 210.388 350.692 210.291 350.738 210.243C350.766 210.216 351.365 209.451 352.109 210.2C352.156 210.248 352.17 210.34 352.137 210.41C352.104 210.48 352.048 210.485 351.992 210.458C351.459 210.162 350.879 210.469 350.855 210.49C350.837 210.512 350.813 210.517 350.794 210.517L350.79 210.523Z" fill="#060633"/>
<path d="M351.421 214.718C351.421 214.718 353.475 215.358 355.72 215.105C355.72 215.105 355.393 217.496 353.119 217.022C351.8 216.748 351.421 214.718 351.421 214.718Z" fill="#F2F2F2"/>
<path d="M356.848 227.022C356.848 227.022 353.723 225.908 352.89 226.774C352.058 227.636 352.67 231.589 354.111 231.939C355.552 232.289 358.27 227.975 356.848 227.022Z" fill="#9A62A4"/>
<path d="M355.014 226.091C355.014 226.091 359.094 224.432 359.889 222.774C360.684 221.115 364.909 224.949 364.834 226.091C364.759 227.238 357.152 233.586 356.656 232.789C356.16 231.987 354.018 227.178 355.014 226.091Z" fill="#F2F2F2"/>
<path d="M355.014 226.091C355.014 226.091 354.406 224.346 354.696 223.404C354.696 223.404 354.888 222.574 354.27 222.628C353.648 222.687 350.266 225.401 349.971 226.236C349.672 227.065 349.625 230.959 350.715 231.244C351.81 231.529 354.444 227.351 354.757 226.936C355.066 226.521 355.014 226.096 355.014 226.096V226.091Z" fill="#F2F2F2"/>
<path d="M353.236 230.409C353.236 230.409 342.485 262.487 343.201 275.933C343.201 275.933 343.959 283.779 348.792 288.017C348.792 288.017 355.313 283.095 356.188 275.933C356.909 270.048 353.723 235.961 355.561 231.255L353.236 230.409Z" fill="#9A62A4"/>
<path d="M354.134 232.025C354.134 232.025 354.116 232.025 354.111 232.025C353.161 232.009 352.647 229.871 352.623 229.779L352.768 229.736C352.768 229.736 353.278 231.836 354.111 231.852H354.134C354.986 231.852 355.748 230.942 355.758 230.932L355.865 231.05C355.833 231.088 355.051 232.025 354.134 232.025Z" fill="#4F4FC1"/>
<path d="M358.457 205.262C358.457 205.262 356.867 208.143 353.386 208.326C353.386 208.326 352.974 208.148 353.573 207.712C354.172 207.276 355.019 206.08 354.794 205.703C354.57 205.332 351.996 209.365 349.316 209.155C349.316 209.155 345.592 209.01 347.753 206.452C349.096 204.869 347.753 198.611 356.647 198.04C357.947 197.96 360.754 198.154 361.798 200.464C361.798 200.464 365.33 200.334 366.05 205.256C367.131 212.655 361.25 215.364 361.25 215.364C361.25 215.364 362.71 209.085 361.101 209.898C359.037 210.943 357.943 209.597 358.836 208.234C359.73 206.872 359.95 204.169 358.448 205.256L358.457 205.262Z" fill="#606060"/>
<path d="M362.177 212.515C361.508 213.005 360.656 212.844 360.277 212.154C359.898 211.465 360.132 210.512 360.801 210.022C361.47 209.532 362.322 209.694 362.701 210.383C363.08 211.072 362.846 212.025 362.177 212.515Z" fill="#FDAD9B"/>
<path d="M364.6 200.792C364.563 200.792 364.525 200.776 364.493 200.743C363.524 199.629 362.041 200.054 362.027 200.06C361.948 200.081 361.868 200.028 361.845 199.936C361.826 199.844 361.873 199.753 361.952 199.726C362.018 199.705 363.613 199.242 364.708 200.501C364.764 200.571 364.764 200.679 364.708 200.743C364.68 200.776 364.642 200.792 364.6 200.792Z" fill="#4F4FC1"/>
<path d="M361.489 199.117C361.489 199.117 361.475 199.117 361.47 199.117C361.391 199.106 361.335 199.02 361.344 198.923C361.344 198.885 361.423 198.019 360.263 197.561C360.184 197.529 360.142 197.432 360.17 197.346C360.198 197.254 360.282 197.211 360.361 197.238C361.765 197.793 361.648 198.923 361.639 198.971C361.629 199.058 361.564 199.117 361.489 199.117Z" fill="#4F4FC1"/>
<path d="M398.191 294C398.266 295.965 395.553 297.721 392.133 297.926C388.713 298.13 385.887 296.709 385.812 294.748C385.742 292.783 388.451 291.027 391.871 290.823C395.286 290.618 398.116 292.04 398.191 294Z" fill="#4F4FC1"/>
<path d="M396.774 294.915C396.83 296.428 394.743 297.78 392.109 297.942C389.475 298.103 387.295 297.005 387.244 295.491C387.188 293.978 389.274 292.627 391.908 292.465C394.542 292.304 396.722 293.402 396.774 294.915Z" fill="#FDAD9B"/>
<path d="M394.009 300.349C394.626 300.413 395.089 301.049 395.033 301.76L394.172 312.809C394.116 313.52 393.564 314.053 392.947 313.989C392.329 313.924 391.866 313.289 391.922 312.578L392.783 301.528C392.839 300.817 393.391 300.284 394.009 300.349Z" fill="#FDAD9B"/>
<path d="M391.127 300.053C391.744 300.117 392.207 300.753 392.151 301.464L391.188 313.822C391.131 314.533 390.579 315.066 389.962 315.001C389.344 314.937 388.881 314.301 388.937 313.59L389.901 301.232C389.957 300.521 390.509 299.988 391.127 300.053Z" fill="#FDAD9B"/>
<path d="M390.855 293.542L391.145 293.86C391.688 294.458 391.711 295.454 391.192 296.078L386.144 302.169C385.625 302.793 384.759 302.82 384.212 302.223L383.922 301.905C383.379 301.307 383.356 300.311 383.875 299.686L388.923 293.596C389.442 292.971 390.308 292.944 390.855 293.542Z" fill="#FDAD9B"/>
<path d="M388.249 299.756C388.867 299.821 389.33 300.456 389.274 301.167L388.502 311.07C388.446 311.781 387.894 312.314 387.276 312.249C386.659 312.185 386.196 311.549 386.252 310.839L387.024 300.936C387.08 300.225 387.632 299.692 388.249 299.756Z" fill="#FDAD9B"/>
<path d="M396.451 294.258C396.451 294.258 399.207 300.973 397.157 305.691C396.446 307.322 387.992 306.181 387.361 304.269C386.729 302.357 387.815 295.728 387.815 295.728L396.451 294.258Z" fill="#FDAD9B"/>
<path d="M396.867 300.634C397.485 300.699 397.943 301.329 397.887 302.04L397.12 311.926C397.064 312.637 396.516 313.165 395.899 313.1C395.281 313.036 394.823 312.406 394.879 311.695L395.646 301.808C395.702 301.097 396.25 300.57 396.867 300.634Z" fill="#FDAD9B"/>
<path d="M331.089 293.418C331.065 293.127 329.007 263.941 336.356 245.859L336.628 246.004C329.311 264 331.365 293.095 331.383 293.391L331.089 293.418Z" fill="#4F4FC1"/>
<path d="M380.736 267.237C378.799 258.136 374.785 251.664 374.743 251.599L374.986 251.4C375.028 251.464 379.075 257.986 381.026 267.156L380.736 267.237Z" fill="#4F4FC1"/>
<path d="M351.052 212.273C351.089 212.596 351.285 212.838 351.487 212.806C351.692 212.773 351.828 212.488 351.795 212.16C351.758 211.831 351.566 211.594 351.36 211.627C351.154 211.659 351.019 211.944 351.052 212.273Z" fill="#060633"/>
<path d="M354.443 212.386C354.481 212.714 354.677 212.951 354.878 212.919C355.084 212.886 355.22 212.601 355.187 212.273C355.15 211.95 354.953 211.708 354.752 211.74C354.546 211.772 354.411 212.057 354.443 212.386Z" fill="#060633"/>
</svg>
