<svg width="50" height="49" viewBox="0 0 50 49" fill="none" xmlns="http://www.w3.org/2000/svg">
<path opacity="0.2" d="M26.5278 20.625C26.5278 22.589 25.9454 24.509 24.8542 26.1421C23.763 27.7751 22.2121 29.048 20.3975 29.7996C18.5829 30.5512 16.5863 30.7478 14.6599 30.3647C12.7336 29.9815 10.9641 29.0357 9.57533 27.6469C8.18653 26.2581 7.24074 24.4887 6.85756 22.5623C6.47439 20.636 6.67105 18.6393 7.42267 16.8247C8.17429 15.0102 9.4471 13.4592 11.0802 12.3681C12.7132 11.2769 14.6332 10.6945 16.5973 10.6945C19.231 10.6945 21.7569 11.7407 23.6192 13.603C25.4815 15.4654 26.5278 17.9912 26.5278 20.625Z" fill="#9A62A4"/>
<path d="M22.9471 30.1582C24.9947 28.795 26.5492 26.8091 27.3809 24.4941C28.2125 22.1791 28.2771 19.6579 27.565 17.3034C26.8529 14.9488 25.402 12.8859 23.4269 11.4198C21.4517 9.9536 19.0571 9.16199 16.5973 9.16199C14.1374 9.16199 11.7429 9.9536 9.7677 11.4198C7.79255 12.8859 6.34165 14.9488 5.62958 17.3034C4.91751 19.6579 4.98206 22.1791 5.81369 24.4941C6.64532 26.8091 8.19988 28.795 10.2475 30.1582C6.54357 31.5233 3.38035 34.0495 1.22981 37.3598C1.11678 37.5277 1.03828 37.7165 0.99885 37.9151C0.959424 38.1137 0.959865 38.3181 1.00015 38.5166C1.04043 38.715 1.11975 38.9034 1.2335 39.0709C1.34725 39.2384 1.49316 39.3816 1.66275 39.4922C1.83233 39.6029 2.02221 39.6786 2.22135 39.7152C2.42048 39.7518 2.62491 39.7484 2.82273 39.7053C3.02056 39.6622 3.20784 39.5802 3.37369 39.4641C3.53954 39.3479 3.68065 39.2 3.78883 39.0288C5.17602 36.8953 7.07422 35.142 9.31103 33.9283C11.5478 32.7146 14.0524 32.0789 16.5973 32.0789C19.1422 32.0789 21.6467 32.7146 23.8835 33.9283C26.1203 35.142 28.0185 36.8953 29.4057 39.0288C29.6298 39.3619 29.976 39.5934 30.3693 39.6732C30.7627 39.7531 31.1717 39.6749 31.5079 39.4556C31.8441 39.2363 32.0805 38.8935 32.166 38.5013C32.2515 38.1091 32.1792 37.6991 31.9648 37.3598C29.8142 34.0495 26.651 31.5233 22.9471 30.1582ZM8.19454 20.6249C8.19454 18.963 8.68735 17.3384 9.61065 15.9566C10.534 14.5748 11.8463 13.4978 13.3817 12.8618C14.9171 12.2258 16.6066 12.0594 18.2366 12.3836C19.8665 12.7079 21.3638 13.5081 22.5389 14.6833C23.7141 15.8584 24.5143 17.3557 24.8386 18.9856C25.1628 20.6156 24.9964 22.3051 24.3604 23.8405C23.7244 25.3759 22.6474 26.6882 21.2656 27.6115C19.8838 28.5349 18.2592 29.0277 16.5973 29.0277C14.3695 29.0251 12.2337 28.139 10.6584 26.5638C9.08316 24.9885 8.19706 22.8527 8.19454 20.6249ZM48.3253 39.4738C47.9859 39.6951 47.5726 39.7725 47.1761 39.6891C46.7797 39.6056 46.4326 39.3682 46.2112 39.0288C44.8257 36.894 42.9277 35.14 40.6905 33.9268C38.4532 32.7136 35.9478 32.0798 33.4028 32.0832C32.9976 32.0832 32.609 31.9222 32.3225 31.6357C32.036 31.3492 31.875 30.9606 31.875 30.5554C31.875 30.1502 32.036 29.7617 32.3225 29.4751C32.609 29.1886 32.9976 29.0277 33.4028 29.0277C34.6402 29.0265 35.8621 28.752 36.9812 28.2239C38.1002 27.6957 39.0889 26.927 39.8764 25.9725C40.6639 25.0179 41.2308 23.9013 41.5368 22.7023C41.8427 21.5032 41.88 20.2514 41.646 19.0363C41.4121 17.8212 40.9127 16.6728 40.1834 15.673C39.4542 14.6733 38.5131 13.847 37.4275 13.2531C36.3419 12.6592 35.1385 12.3125 33.9033 12.2376C32.6682 12.1627 31.4317 12.3615 30.2823 12.8199C30.0949 12.9009 29.8931 12.9436 29.689 12.9453C29.4848 12.947 29.2824 12.9078 29.0936 12.83C28.9049 12.7521 28.7336 12.6373 28.59 12.4921C28.4464 12.347 28.3334 12.1745 28.2576 11.985C28.1817 11.7954 28.1447 11.5926 28.1486 11.3884C28.1525 11.1843 28.1972 10.983 28.2802 10.7965C28.3632 10.6099 28.4828 10.4419 28.6318 10.3024C28.7809 10.1628 28.9563 10.0546 29.1479 9.98399C31.7785 8.93489 34.7044 8.89714 37.3611 9.87802C40.0179 10.8589 42.2172 12.7889 43.5349 15.2957C44.8527 17.8025 45.1953 20.7085 44.4969 23.4531C43.7984 26.1976 42.1083 28.5863 39.7526 30.1582C43.4565 31.5233 46.6197 34.0495 48.7702 37.3598C48.9915 37.6991 49.069 38.1125 48.9855 38.5089C48.9021 38.9054 48.6646 39.2524 48.3253 39.4738Z" fill="#020054"/>
</svg>
